<svg xmlns="http://www.w3.org/2000/svg" xmlns:xlink="http://www.w3.org/1999/xlink" width="2056" zoomAndPan="magnify" viewBox="0 0 1542 537.750006" height="717" preserveAspectRatio="xMidYMid meet" version="1.0"><defs><g/><clipPath id="e390166496"><path d="M 870.65625 357 L 912.40625 357 L 912.40625 377 L 870.65625 377 Z M 982.800781 357 L 1217 357 L 1217 377 L 982.800781 377 Z M 609 357 L 800.265625 357 L 800.265625 377 L 609 377 Z M 609 357 " clip-rule="nonzero"/></clipPath><clipPath id="9cc237526e"><path d="M 1282.90625 357 L 1500 357 L 1500 377 L 1282.90625 377 Z M 1282.90625 357 " clip-rule="nonzero"/></clipPath><clipPath id="8b7cc4ea86"><path d="M 0.359375 0 L 537.859375 0 L 537.859375 537.5 L 0.359375 537.5 Z M 0.359375 0 " clip-rule="nonzero"/></clipPath><clipPath id="f149398858"><path d="M 269.109375 0 C 120.683594 0 0.359375 120.324219 0.359375 268.75 C 0.359375 417.175781 120.683594 537.5 269.109375 537.5 C 417.535156 537.5 537.859375 417.175781 537.859375 268.75 C 537.859375 120.324219 417.535156 0 269.109375 0 Z M 269.109375 0 " clip-rule="nonzero"/></clipPath><clipPath id="1ebb79cb25"><path d="M 23.5625 25.351562 L 510.355469 25.351562 L 510.355469 512.148438 L 23.5625 512.148438 Z M 23.5625 25.351562 " clip-rule="nonzero"/></clipPath><clipPath id="9fcde0d94a"><path d="M 266.957031 25.351562 C 132.535156 25.351562 23.5625 134.324219 23.5625 268.75 C 23.5625 403.175781 132.535156 512.148438 266.957031 512.148438 C 401.382812 512.148438 510.355469 403.175781 510.355469 268.75 C 510.355469 134.324219 401.382812 25.351562 266.957031 25.351562 Z M 266.957031 25.351562 " clip-rule="nonzero"/></clipPath><clipPath id="372d3b8e4e"><path d="M 168.308594 256.9375 L 373.210938 256.9375 L 373.210938 351.453125 L 168.308594 351.453125 Z M 168.308594 256.9375 " clip-rule="nonzero"/></clipPath><clipPath id="b13579fa93"><path d="M 236 167.3125 L 290.453125 167.3125 L 290.453125 349.441406 L 236 349.441406 Z M 236 167.3125 " clip-rule="nonzero"/></clipPath><clipPath id="8f87f5fd88"><path d="M 238.328125 196.1875 C 230.019531 223.992188 237.039062 251.058594 240.902344 265.421875 L 263.5 349.25 L 285.621094 265.722656 C 289.214844 250.269531 291.585938 233.878906 289.828125 215.628906 C 288.773438 190.378906 283.390625 170.789062 276.742188 167.992188 C 272.667969 166.523438 268.726562 170.757812 265.652344 180.632812 C 264.828125 183.289062 264.085938 186.261719 263.441406 189.488281 C 262.679688 185.8125 261.78125 182.449219 260.765625 179.46875 C 257.234375 169.082031 252.734375 165.570312 248.410156 168.167969 C 244.316406 171.222656 240.644531 181.433594 238.328125 196.1875 Z M 238.328125 196.1875 " clip-rule="nonzero"/></clipPath><clipPath id="49a69d9b2a"><path d="M 120 220.546875 L 410 220.546875 L 410 470 L 120 470 Z M 120 220.546875 " clip-rule="nonzero"/></clipPath><clipPath id="f50806a412"><path d="M 397.632812 430.023438 C 421.039062 391.96875 404.550781 354.929688 383.828125 335.269531 L 262.664062 220.546875 L 144.058594 334.859375 C 124.785156 356.007812 117.394531 378.441406 121.5 403.417969 C 127.167969 437.972656 156.019531 464.78125 191.660156 468.609375 C 213.519531 470.945312 234.636719 464.828125 251.121094 451.3125 C 255.554688 447.675781 259.519531 443.609375 262.976562 439.191406 C 267.074219 444.222656 271.882812 448.824219 277.320312 452.902344 C 296.273438 467.117188 320.398438 472.800781 343.570312 468.371094 C 365.519531 464.1875 385.21875 450.214844 397.632812 430.023438 Z M 397.632812 430.023438 " clip-rule="nonzero"/></clipPath><clipPath id="3a077c7022"><path d="M 144.125 241.714844 L 385 241.714844 L 385 449.992188 L 144.125 449.992188 Z M 144.125 241.714844 " clip-rule="nonzero"/></clipPath><clipPath id="e82bdda4bc"><path d="M 375.292969 416.054688 C 394.769531 384.382812 381.046875 353.554688 363.800781 337.195312 L 262.964844 241.714844 L 164.253906 336.851562 C 148.214844 354.453125 142.066406 373.121094 145.480469 393.910156 C 150.199219 422.667969 174.210938 444.980469 203.875 448.164062 C 222.066406 450.109375 239.640625 445.019531 253.355469 433.769531 C 257.046875 430.742188 260.347656 427.359375 263.222656 423.679688 C 266.636719 427.867188 270.636719 431.699219 275.164062 435.09375 C 290.9375 446.925781 311.011719 451.652344 330.300781 447.96875 C 348.566406 444.484375 364.960938 432.859375 375.292969 416.054688 Z M 375.292969 416.054688 " clip-rule="nonzero"/></clipPath><clipPath id="823f7883cb"><path d="M 218.328125 318 L 307.761719 318 L 307.761719 395.0625 L 218.328125 395.0625 Z M 218.328125 318 " clip-rule="nonzero"/></clipPath><clipPath id="abe1668e6f"><path d="M 222.15625 330.5 C 214.941406 342.230469 220.023438 353.644531 226.410156 359.707031 L 263.753906 395.0625 L 300.308594 359.832031 C 306.25 353.3125 308.527344 346.398438 307.261719 338.699219 C 305.515625 328.050781 296.621094 319.789062 285.636719 318.609375 C 278.898438 317.886719 272.390625 319.773438 267.3125 323.941406 C 265.945312 325.0625 264.722656 326.3125 263.65625 327.675781 C 262.394531 326.125 260.914062 324.707031 259.238281 323.449219 C 253.394531 319.070312 245.960938 317.316406 238.816406 318.683594 C 232.054688 319.972656 225.980469 324.277344 222.15625 330.5 Z M 222.15625 330.5 " clip-rule="nonzero"/></clipPath><clipPath id="f32686eb8e"><path d="M 118 82 L 262 82 L 262 277 L 118 277 Z M 118 82 " clip-rule="nonzero"/></clipPath><clipPath id="b6a20d2323"><path d="M 101.289062 97.238281 L 239.730469 69.222656 L 278.800781 262.285156 L 140.359375 290.300781 Z M 101.289062 97.238281 " clip-rule="nonzero"/></clipPath><clipPath id="5b3d50e366"><path d="M 170.511719 83.230469 C 132.28125 90.964844 110.011719 140.34375 120.773438 193.515625 C 131.53125 246.6875 171.246094 283.523438 209.476562 275.785156 C 247.707031 268.050781 269.976562 218.671875 259.214844 165.5 C 248.453125 112.324219 208.738281 75.492188 170.511719 83.230469 Z M 170.511719 83.230469 " clip-rule="nonzero"/></clipPath><clipPath id="1ec631f1e1"><path d="M 142 106 L 238 106 L 238 261 L 142 261 Z M 142 106 " clip-rule="nonzero"/></clipPath><clipPath id="e9c9576575"><path d="M 129.78125 115.410156 L 220.070312 97.644531 L 250.257812 251.066406 L 159.96875 268.832031 Z M 129.78125 115.410156 " clip-rule="nonzero"/></clipPath><clipPath id="2edaf89c38"><path d="M 174.925781 106.527344 C 149.992188 111.433594 136.527344 149.699219 144.847656 191.992188 C 153.171875 234.289062 180.128906 264.597656 205.0625 259.695312 C 229.996094 254.789062 243.460938 216.523438 235.136719 174.226562 C 226.816406 131.929688 199.855469 101.621094 174.925781 106.527344 Z M 174.925781 106.527344 " clip-rule="nonzero"/></clipPath><clipPath id="8e05598b35"><path d="M 35 205 L 176 205 L 176 357 L 35 357 Z M 35 205 " clip-rule="nonzero"/></clipPath><clipPath id="ca43635a16"><path d="M 6.625 253.625 L 106.761719 178.4375 L 205.15625 309.480469 L 105.015625 384.667969 Z M 6.625 253.625 " clip-rule="nonzero"/></clipPath><clipPath id="81d7f469a9"><path d="M 56.691406 216.03125 C 29.039062 236.792969 28.59375 282.886719 55.695312 318.984375 C 82.800781 355.082031 127.1875 367.511719 154.839844 346.75 C 182.496094 325.984375 182.941406 279.890625 155.835938 243.792969 C 128.734375 207.699219 84.347656 195.265625 56.691406 216.03125 Z M 56.691406 216.03125 " clip-rule="nonzero"/></clipPath><clipPath id="cedca22276"><path d="M 62 230 L 161 230 L 161 333 L 62 333 Z M 62 230 " clip-rule="nonzero"/></clipPath><clipPath id="7803b6f867"><path d="M 42.308594 265.917969 L 102.023438 211.117188 L 180.582031 296.71875 L 120.871094 351.519531 Z M 42.308594 265.917969 " clip-rule="nonzero"/></clipPath><clipPath id="666c538483"><path d="M 72.164062 238.515625 C 55.675781 253.648438 59.882812 285.0625 81.558594 308.683594 C 103.234375 332.300781 134.171875 339.183594 150.660156 324.050781 C 167.152344 308.917969 162.945312 277.503906 141.269531 253.882812 C 119.59375 230.261719 88.65625 223.382812 72.164062 238.515625 Z M 72.164062 238.515625 " clip-rule="nonzero"/></clipPath><clipPath id="dfe1efa6aa"><path d="M 264 85 L 412 85 L 412 279 L 264 279 Z M 264 85 " clip-rule="nonzero"/></clipPath><clipPath id="0246431342"><path d="M 297.585938 67.664062 L 433.191406 107.183594 L 378.082031 296.292969 L 242.472656 256.773438 Z M 297.585938 67.664062 " clip-rule="nonzero"/></clipPath><clipPath id="b001ee8754"><path d="M 365.386719 87.425781 C 327.941406 76.511719 285.28125 109.886719 270.101562 161.972656 C 254.921875 214.054688 272.972656 265.125 310.421875 276.039062 C 347.867188 286.953125 390.53125 253.574219 405.707031 201.492188 C 420.886719 149.40625 402.835938 98.335938 365.386719 87.425781 Z M 365.386719 87.425781 " clip-rule="nonzero"/></clipPath><clipPath id="0167069a9b"><path d="M 288 105 L 388 105 L 388 258 L 288 258 Z M 288 105 " clip-rule="nonzero"/></clipPath><clipPath id="a868f4d44f"><path d="M 316.042969 93.804688 L 404.25 120.027344 L 359.691406 269.90625 L 271.488281 243.683594 Z M 316.042969 93.804688 " clip-rule="nonzero"/></clipPath><clipPath id="3f1a9f34cc"><path d="M 360.144531 106.914062 C 335.789062 99.675781 306.085938 127.300781 293.800781 168.621094 C 281.519531 209.941406 291.304688 249.304688 315.664062 256.546875 C 340.019531 263.789062 369.722656 236.160156 382.007812 194.84375 C 394.289062 153.523438 384.503906 114.15625 360.144531 106.914062 Z M 360.144531 106.914062 " clip-rule="nonzero"/></clipPath><clipPath id="b3fa68b6ea"><path d="M 354 208 L 500 208 L 500 356 L 354 356 Z M 354 208 " clip-rule="nonzero"/></clipPath><clipPath id="d6f90f5458"><path d="M 438.316406 179.773438 L 528.386719 266.769531 L 414.546875 384.640625 L 324.472656 297.644531 Z M 438.316406 179.773438 " clip-rule="nonzero"/></clipPath><clipPath id="a87f3bdb5f"><path d="M 483.351562 223.273438 C 458.476562 199.25 412.894531 206.09375 381.535156 238.5625 C 350.175781 271.03125 344.917969 316.828125 369.792969 340.851562 C 394.664062 364.875 440.25 358.027344 471.609375 325.558594 C 502.964844 293.089844 508.222656 247.296875 483.351562 223.273438 Z M 483.351562 223.273438 " clip-rule="nonzero"/></clipPath><clipPath id="3f15a2f601"><path d="M 369 228 L 472 228 L 472 335 L 369 335 Z M 369 228 " clip-rule="nonzero"/></clipPath><clipPath id="9e2593f4e8"><path d="M 429.824219 208.191406 L 492.515625 264.589844 L 411.664062 354.460938 L 348.976562 298.0625 Z M 429.824219 208.191406 " clip-rule="nonzero"/></clipPath><clipPath id="f9647aa01c"><path d="M 461.167969 236.390625 C 443.859375 220.816406 411.742188 228.292969 389.433594 253.089844 C 367.125 277.886719 363.074219 310.613281 380.386719 326.1875 C 397.699219 341.761719 429.816406 334.285156 452.125 309.488281 C 474.429688 284.691406 478.480469 251.964844 461.167969 236.390625 Z M 461.167969 236.390625 " clip-rule="nonzero"/></clipPath><clipPath id="858d9868ff"><path d="M 217.601562 252.410156 L 308.855469 252.410156 L 308.855469 285.417969 L 217.601562 285.417969 Z M 217.601562 252.410156 " clip-rule="nonzero"/></clipPath><clipPath id="ff41fb63d6"><path d="M 249.507812 241.023438 L 276.71875 241.023438 L 276.71875 256.492188 L 249.507812 256.492188 Z M 249.507812 241.023438 " clip-rule="nonzero"/></clipPath><clipPath id="c0d187208c"><path d="M 247.507812 441.660156 L 278.570312 441.660156 L 278.570312 452.660156 L 247.507812 452.660156 Z M 247.507812 441.660156 " clip-rule="nonzero"/></clipPath><clipPath id="f3a675429c"><path d="M 255.515625 433.054688 L 270.835938 433.054688 L 270.835938 442.515625 L 255.515625 442.515625 Z M 255.515625 433.054688 " clip-rule="nonzero"/></clipPath><clipPath id="da5ced4526"><path d="M 255.515625 418.097656 L 270.835938 418.097656 L 270.835938 427.5625 L 255.515625 427.5625 Z M 255.515625 418.097656 " clip-rule="nonzero"/></clipPath><clipPath id="b7d5bd3e63"><path d="M 247.507812 426.523438 L 278.570312 426.523438 L 278.570312 437.523438 L 247.507812 437.523438 Z M 247.507812 426.523438 " clip-rule="nonzero"/></clipPath><clipPath id="3b39a4365d"><path d="M 257.675781 323.132812 L 268.675781 323.132812 L 268.675781 327 L 257.675781 327 Z M 257.675781 323.132812 " clip-rule="nonzero"/></clipPath><clipPath id="44d8a5195e"><path d="M 260.785156 326.773438 L 265.566406 326.773438 L 265.566406 331.089844 L 260.785156 331.089844 Z M 260.785156 326.773438 " clip-rule="nonzero"/></clipPath></defs><g clip-path="url(#e390166496)"><path fill="#7c945a" d="M 609 357.207031 L 1216.910156 357.207031 L 1216.910156 376.699219 L 609 376.699219 Z M 609 357.207031 " fill-opacity="1" fill-rule="nonzero"/></g><g fill="#7c945a" fill-opacity="1"><g transform="translate(609.001462, 346.713822)"><g><path d="M 100.09375 0 L 6.3125 0 L 6.3125 -16 L 12.828125 -16.578125 C 16.648438 -16.972656 18.5625 -18.816406 18.5625 -22.109375 L 18.5625 -113.921875 L 7.3125 -114.515625 L 7.3125 -131.296875 L 54.890625 -131.296875 L 54.890625 -115.296875 L 48.375 -114.71875 C 44.550781 -114.320312 42.640625 -112.210938 42.640625 -108.390625 L 42.640625 -20.34375 L 75.421875 -20.34375 C 77.265625 -20.34375 78.484375 -20.832031 79.078125 -21.8125 C 79.671875 -22.800781 79.96875 -24.414062 79.96875 -26.65625 L 79.96875 -40.46875 L 100.09375 -39.09375 Z M 100.09375 0 "/></g></g></g><g fill="#7c945a" fill-opacity="1"><g transform="translate(715.02424, 346.713822)"><g><path d="M 40.46875 -23.890625 L 40.46875 -101.484375 L 17.375 -89.640625 L 8.6875 -104.84375 L 44.625 -127.15625 L 63.96875 -127.15625 L 63.96875 -17.765625 L 84.5 -16.78125 L 84.5 0 L 15.796875 0 L 15.796875 -16.1875 L 34.75 -17.375 C 36.71875 -17.507812 38.160156 -18.035156 39.078125 -18.953125 C 40.003906 -19.878906 40.46875 -21.523438 40.46875 -23.890625 Z M 40.46875 -23.890625 "/></g></g></g><g fill="#7c945a" fill-opacity="1"><g transform="translate(804.659899, 346.713822)"><g><path d="M 17.578125 18.75 L 17.578125 -76.796875 C 17.578125 -79.035156 17.210938 -80.582031 16.484375 -81.4375 C 15.765625 -82.289062 14.484375 -82.71875 12.640625 -82.71875 L 4.34375 -83.3125 L 4.34375 -99.3125 L 37.703125 -99.3125 L 37.703125 -86.484375 C 39.816406 -90.429688 43.632812 -94.046875 49.15625 -97.328125 C 54.6875 -100.617188 61.269531 -102.265625 68.90625 -102.265625 C 92.726562 -102.265625 104.640625 -85.550781 104.640625 -52.125 C 104.640625 -34.351562 100.753906 -20.726562 92.984375 -11.25 C 85.222656 -1.769531 74.695312 2.96875 61.40625 2.96875 C 53.507812 2.96875 46.46875 1.054688 40.28125 -2.765625 L 40.28125 24.484375 L 56.265625 25.265625 L 56.265625 40.875 L 5.328125 40.875 L 5.328125 25.859375 L 11.84375 25.265625 C 13.820312 25.003906 15.269531 24.445312 16.1875 23.59375 C 17.113281 22.738281 17.578125 21.125 17.578125 18.75 Z M 80.15625 -50.15625 C 80.15625 -72.132812 73.507812 -83.125 60.21875 -83.125 C 54.6875 -83.125 49.976562 -81.441406 46.09375 -78.078125 C 42.21875 -74.722656 40.28125 -70.742188 40.28125 -66.140625 L 40.28125 -20.734375 C 45.28125 -17.441406 51.363281 -15.796875 58.53125 -15.796875 C 65.707031 -15.796875 71.101562 -19.082031 74.71875 -25.65625 C 78.34375 -32.238281 80.15625 -40.40625 80.15625 -50.15625 Z M 80.15625 -50.15625 "/></g></g></g><g fill="#7c945a" fill-opacity="1"><g transform="translate(916.80321, 346.713822)"><g><path d="M 17.578125 18.75 L 17.578125 -76.796875 C 17.578125 -79.035156 17.210938 -80.582031 16.484375 -81.4375 C 15.765625 -82.289062 14.484375 -82.71875 12.640625 -82.71875 L 4.34375 -83.3125 L 4.34375 -99.3125 L 37.703125 -99.3125 L 37.703125 -86.484375 C 39.816406 -90.429688 43.632812 -94.046875 49.15625 -97.328125 C 54.6875 -100.617188 61.269531 -102.265625 68.90625 -102.265625 C 92.726562 -102.265625 104.640625 -85.550781 104.640625 -52.125 C 104.640625 -34.351562 100.753906 -20.726562 92.984375 -11.25 C 85.222656 -1.769531 74.695312 2.96875 61.40625 2.96875 C 53.507812 2.96875 46.46875 1.054688 40.28125 -2.765625 L 40.28125 24.484375 L 56.265625 25.265625 L 56.265625 40.875 L 5.328125 40.875 L 5.328125 25.859375 L 11.84375 25.265625 C 13.820312 25.003906 15.269531 24.445312 16.1875 23.59375 C 17.113281 22.738281 17.578125 21.125 17.578125 18.75 Z M 80.15625 -50.15625 C 80.15625 -72.132812 73.507812 -83.125 60.21875 -83.125 C 54.6875 -83.125 49.976562 -81.441406 46.09375 -78.078125 C 42.21875 -74.722656 40.28125 -70.742188 40.28125 -66.140625 L 40.28125 -20.734375 C 45.28125 -17.441406 51.363281 -15.796875 58.53125 -15.796875 C 65.707031 -15.796875 71.101562 -19.082031 74.71875 -25.65625 C 78.34375 -32.238281 80.15625 -40.40625 80.15625 -50.15625 Z M 80.15625 -50.15625 "/></g></g></g><g fill="#7c945a" fill-opacity="1"><g transform="translate(1028.946521, 346.713822)"><g><path d="M 42.25 -99.3125 L 42.25 -16.390625 L 53.5 -15.796875 L 53.5 0 L 6.515625 0 L 6.515625 -15 L 13.03125 -15.59375 C 16.84375 -15.988281 18.75 -18.097656 18.75 -21.921875 L 18.75 -76.796875 C 18.75 -79.035156 18.382812 -80.550781 17.65625 -81.34375 C 16.9375 -82.132812 15.660156 -82.53125 13.828125 -82.53125 L 6.90625 -82.921875 L 6.90625 -99.3125 Z M 17.375 -116.390625 C 14.613281 -119.085938 13.234375 -122.539062 13.234375 -126.75 C 13.234375 -130.96875 14.613281 -134.488281 17.375 -137.3125 C 20.132812 -140.144531 23.753906 -141.5625 28.234375 -141.5625 C 32.710938 -141.5625 36.363281 -140.144531 39.1875 -137.3125 C 42.019531 -134.488281 43.4375 -130.96875 43.4375 -126.75 C 43.4375 -122.539062 42.019531 -119.085938 39.1875 -116.390625 C 36.363281 -113.691406 32.710938 -112.34375 28.234375 -112.34375 C 23.753906 -112.34375 20.132812 -113.691406 17.375 -116.390625 Z M 17.375 -116.390625 "/></g></g></g><g fill="#7c945a" fill-opacity="1"><g transform="translate(1087.387397, 346.713822)"><g><path d="M 11.0625 -131.296875 L 29.421875 -131.296875 L 27.4375 -85.890625 L 13.03125 -85.890625 Z M 11.0625 -131.296875 "/></g></g></g><g fill="#7c945a" fill-opacity="1"><g transform="translate(1127.861668, 346.713822)"><g><path d="M 58.25 -84.3125 C 55.082031 -85.488281 51.257812 -86.078125 46.78125 -86.078125 C 42.3125 -86.078125 38.726562 -85.054688 36.03125 -83.015625 C 33.332031 -80.984375 31.984375 -78.484375 31.984375 -75.515625 C 31.984375 -72.554688 32.476562 -70.253906 33.46875 -68.609375 C 34.457031 -66.960938 36.003906 -65.546875 38.109375 -64.359375 C 41.398438 -62.648438 45.347656 -61.171875 49.953125 -59.921875 C 54.554688 -58.671875 57.976562 -57.679688 60.21875 -56.953125 C 62.457031 -56.234375 65.253906 -55.015625 68.609375 -53.296875 C 71.960938 -51.585938 74.492188 -49.75 76.203125 -47.78125 C 80.816406 -42.90625 83.125 -36.648438 83.125 -29.015625 C 83.125 -19.148438 79.535156 -11.421875 72.359375 -5.828125 C 65.179688 -0.234375 56.066406 2.5625 45.015625 2.5625 C 28.953125 2.5625 16.84375 0.523438 8.6875 -3.546875 L 8.6875 -31 L 26.453125 -32.375 L 26.453125 -22.90625 C 26.453125 -17.113281 31.976562 -14.21875 43.03125 -14.21875 C 54.09375 -14.21875 59.625 -18.234375 59.625 -26.265625 C 59.625 -29.160156 58.671875 -31.523438 56.765625 -33.359375 C 54.859375 -35.203125 52.984375 -36.453125 51.140625 -37.109375 C 49.296875 -37.773438 47.085938 -38.4375 44.515625 -39.09375 C 41.953125 -39.75 39.453125 -40.40625 37.015625 -41.0625 C 34.578125 -41.71875 31.941406 -42.601562 29.109375 -43.71875 C 26.285156 -44.84375 23.164062 -46.457031 19.75 -48.5625 C 13.03125 -52.90625 9.671875 -60.175781 9.671875 -70.375 C 9.671875 -80.582031 13.289062 -88.445312 20.53125 -93.96875 C 27.769531 -99.5 36.882812 -102.265625 47.875 -102.265625 C 58.863281 -102.265625 69.753906 -99.632812 80.546875 -94.375 L 80.546875 -70.6875 L 62.78125 -69.296875 L 62.78125 -77.59375 C 62.78125 -80.882812 61.269531 -83.125 58.25 -84.3125 Z M 58.25 -84.3125 "/></g></g></g><g clip-path="url(#9cc237526e)"><path fill="#f9fa99" d="M 1216.910156 357.207031 L 1499.046875 357.207031 L 1499.046875 376.699219 L 1216.910156 376.699219 Z M 1216.910156 357.207031 " fill-opacity="1" fill-rule="nonzero"/></g><g fill="#f9fa99" fill-opacity="1"><g transform="translate(1216.910236, 346.713822)"><g><path d="M 17.578125 18.75 L 17.578125 -76.796875 C 17.578125 -79.035156 17.210938 -80.582031 16.484375 -81.4375 C 15.765625 -82.289062 14.484375 -82.71875 12.640625 -82.71875 L 4.34375 -83.3125 L 4.34375 -99.3125 L 37.703125 -99.3125 L 37.703125 -86.484375 C 39.816406 -90.429688 43.632812 -94.046875 49.15625 -97.328125 C 54.6875 -100.617188 61.269531 -102.265625 68.90625 -102.265625 C 92.726562 -102.265625 104.640625 -85.550781 104.640625 -52.125 C 104.640625 -34.351562 100.753906 -20.726562 92.984375 -11.25 C 85.222656 -1.769531 74.695312 2.96875 61.40625 2.96875 C 53.507812 2.96875 46.46875 1.054688 40.28125 -2.765625 L 40.28125 24.484375 L 56.265625 25.265625 L 56.265625 40.875 L 5.328125 40.875 L 5.328125 25.859375 L 11.84375 25.265625 C 13.820312 25.003906 15.269531 24.445312 16.1875 23.59375 C 17.113281 22.738281 17.578125 21.125 17.578125 18.75 Z M 80.15625 -50.15625 C 80.15625 -72.132812 73.507812 -83.125 60.21875 -83.125 C 54.6875 -83.125 49.976562 -81.441406 46.09375 -78.078125 C 42.21875 -74.722656 40.28125 -70.742188 40.28125 -66.140625 L 40.28125 -20.734375 C 45.28125 -17.441406 51.363281 -15.796875 58.53125 -15.796875 C 65.707031 -15.796875 71.101562 -19.082031 74.71875 -25.65625 C 78.34375 -32.238281 80.15625 -40.40625 80.15625 -50.15625 Z M 80.15625 -50.15625 "/></g></g></g><g fill="#f9fa99" fill-opacity="1"><g transform="translate(1329.053547, 346.713822)"><g><path d="M 56.078125 -102.265625 C 65.941406 -102.265625 73.769531 -99.863281 79.5625 -95.0625 C 85.351562 -90.257812 88.25 -83.515625 88.25 -74.828125 C 88.25 -69.035156 87 -63.929688 84.5 -59.515625 C 82 -55.109375 78.90625 -51.65625 75.21875 -49.15625 C 71.539062 -46.65625 67.066406 -44.617188 61.796875 -43.046875 C 52.972656 -40.410156 43.035156 -39.09375 31.984375 -39.09375 C 32.378906 -32.113281 34.550781 -26.484375 38.5 -22.203125 C 42.445312 -17.929688 48.5 -15.796875 56.65625 -15.796875 C 64.820312 -15.796875 72.984375 -18.691406 81.140625 -24.484375 L 88.65625 -8.484375 C 86.019531 -6.117188 81.570312 -3.6875 75.3125 -1.1875 C 69.0625 1.3125 61.925781 2.5625 53.90625 2.5625 C 37.84375 2.5625 26.0625 -1.878906 18.5625 -10.765625 C 11.0625 -19.648438 7.3125 -31.859375 7.3125 -47.390625 C 7.3125 -62.921875 11.585938 -75.945312 20.140625 -86.46875 C 28.691406 -97 40.671875 -102.265625 56.078125 -102.265625 Z M 47.078125 -57.15625 C 51.890625 -58.007812 56.332031 -59.914062 60.40625 -62.875 C 64.488281 -65.84375 66.53125 -69.367188 66.53125 -73.453125 C 66.53125 -81.472656 62.582031 -85.484375 54.6875 -85.484375 C 47.320312 -85.484375 41.660156 -82.554688 37.703125 -76.703125 C 33.753906 -70.847656 31.582031 -63.835938 31.1875 -55.671875 C 36.976562 -55.804688 42.273438 -56.300781 47.078125 -57.15625 Z M 47.078125 -57.15625 "/></g></g></g><g fill="#f9fa99" fill-opacity="1"><g transform="translate(1424.612284, 346.713822)"><g><path d="M 28.4375 -120.234375 L 41.265625 -120.234375 L 41.265625 -99.3125 L 67.53125 -99.3125 L 65.546875 -82.71875 L 41.265625 -82.71875 L 41.265625 -30.796875 C 41.265625 -25.003906 42.316406 -20.957031 44.421875 -18.65625 C 46.523438 -16.351562 49.78125 -15.203125 54.1875 -15.203125 C 58.601562 -15.203125 63.050781 -16.582031 67.53125 -19.34375 L 73.453125 -4.140625 C 66.867188 0.460938 58.507812 2.765625 48.375 2.765625 C 42.445312 2.765625 37.441406 2.003906 33.359375 0.484375 C 29.285156 -1.023438 26.257812 -2.703125 24.28125 -4.546875 C 22.3125 -6.390625 20.800781 -9.085938 19.75 -12.640625 C 18.695312 -16.191406 18.101562 -18.988281 17.96875 -21.03125 C 17.832031 -23.070312 17.765625 -26.066406 17.765625 -30.015625 L 17.765625 -82.71875 L 3.75 -82.71875 L 5.71875 -97.140625 C 11.90625 -97.660156 16.578125 -99.863281 19.734375 -103.75 C 22.898438 -107.632812 25.800781 -113.128906 28.4375 -120.234375 Z M 28.4375 -120.234375 "/></g></g></g><g clip-path="url(#8b7cc4ea86)"><g clip-path="url(#f149398858)"><path fill="#7c945a" d="M 0.359375 0 L 537.859375 0 L 537.859375 537.5 L 0.359375 537.5 Z M 0.359375 0 " fill-opacity="1" fill-rule="nonzero"/></g></g><g clip-path="url(#1ebb79cb25)"><g clip-path="url(#9fcde0d94a)"><path fill="#f9fa99" d="M 23.5625 25.351562 L 510.355469 25.351562 L 510.355469 512.148438 L 23.5625 512.148438 Z M 23.5625 25.351562 " fill-opacity="1" fill-rule="nonzero"/></g></g><g clip-path="url(#372d3b8e4e)"><path fill="#7c945a" d="M 168.308594 256.9375 L 373.210938 256.9375 L 373.210938 351.453125 L 168.308594 351.453125 Z M 168.308594 256.9375 " fill-opacity="1" fill-rule="nonzero"/></g><g clip-path="url(#b13579fa93)"><g clip-path="url(#8f87f5fd88)"><path fill="#7c945a" d="M 236.195312 167.101562 L 290.035156 167.101562 L 290.035156 349.230469 L 236.195312 349.230469 Z M 236.195312 167.101562 " fill-opacity="1" fill-rule="nonzero"/></g></g><g clip-path="url(#49a69d9b2a)"><g clip-path="url(#f50806a412)"><path fill="#7c945a" d="M 409.078125 469.828125 L 120.84375 469.828125 L 120.84375 220.546875 L 409.078125 220.546875 Z M 409.078125 469.828125 " fill-opacity="1" fill-rule="nonzero"/></g></g><g clip-path="url(#3a077c7022)"><g clip-path="url(#e82bdda4bc)"><path fill="#f9fa99" d="M 384.816406 449.179688 L 144.9375 449.179688 L 144.9375 241.714844 L 384.816406 241.714844 Z M 384.816406 449.179688 " fill-opacity="1" fill-rule="nonzero"/></g></g><g clip-path="url(#823f7883cb)"><g clip-path="url(#abe1668e6f)"><path fill="#7c945a" d="M 218.628906 318.234375 L 307.464844 318.234375 L 307.464844 395.0625 L 218.628906 395.0625 Z M 218.628906 318.234375 " fill-opacity="1" fill-rule="nonzero"/></g></g><g clip-path="url(#f32686eb8e)"><g clip-path="url(#b6a20d2323)"><g clip-path="url(#5b3d50e366)"><path fill="#7c945a" d="M 101.289062 97.238281 L 239.730469 69.222656 L 278.691406 261.742188 L 140.25 289.757812 Z M 101.289062 97.238281 " fill-opacity="1" fill-rule="nonzero"/></g></g></g><g clip-path="url(#1ec631f1e1)"><g clip-path="url(#e9c9576575)"><g clip-path="url(#2edaf89c38)"><path fill="#f9fa99" d="M 129.78125 115.410156 L 220.070312 97.644531 L 250.1875 250.710938 L 159.898438 268.480469 Z M 129.78125 115.410156 " fill-opacity="1" fill-rule="nonzero"/></g></g></g><g clip-path="url(#8e05598b35)"><g clip-path="url(#ca43635a16)"><g clip-path="url(#81d7f469a9)"><path fill="#7c945a" d="M 6.625 253.625 L 106.761719 178.4375 L 204.863281 309.085938 L 104.722656 384.277344 Z M 6.625 253.625 " fill-opacity="1" fill-rule="nonzero"/></g></g></g><g clip-path="url(#cedca22276)"><g clip-path="url(#7803b6f867)"><g clip-path="url(#666c538483)"><path fill="#f9fa99" d="M 42.308594 265.917969 L 102.023438 211.117188 L 180.582031 296.71875 L 120.871094 351.519531 Z M 42.308594 265.917969 " fill-opacity="1" fill-rule="nonzero"/></g></g></g><g clip-path="url(#dfe1efa6aa)"><g clip-path="url(#0246431342)"><g clip-path="url(#b001ee8754)"><path fill="#7c945a" d="M 297.585938 67.664062 L 433.191406 107.183594 L 378.234375 295.765625 L 242.625 256.242188 Z M 297.585938 67.664062 " fill-opacity="1" fill-rule="nonzero"/></g></g></g><g clip-path="url(#0167069a9b)"><g clip-path="url(#a868f4d44f)"><g clip-path="url(#3f1a9f34cc)"><path fill="#f9fa99" d="M 316.042969 93.804688 L 404.25 120.027344 L 359.792969 269.5625 L 271.589844 243.339844 Z M 316.042969 93.804688 " fill-opacity="1" fill-rule="nonzero"/></g></g></g><g clip-path="url(#b3fa68b6ea)"><g clip-path="url(#d6f90f5458)"><g clip-path="url(#a87f3bdb5f)"><path fill="#7c945a" d="M 438.316406 179.773438 L 528.386719 266.769531 L 414.886719 384.289062 L 324.8125 297.292969 Z M 438.316406 179.773438 " fill-opacity="1" fill-rule="nonzero"/></g></g></g><g clip-path="url(#3f15a2f601)"><g clip-path="url(#9e2593f4e8)"><g clip-path="url(#f9647aa01c)"><path fill="#f9fa99" d="M 429.824219 208.191406 L 492.515625 264.589844 L 411.664062 354.460938 L 348.976562 298.0625 Z M 429.824219 208.191406 " fill-opacity="1" fill-rule="nonzero"/></g></g></g><g clip-path="url(#858d9868ff)"><path fill="#7c945a" d="M 217.640625 285.242188 L 217.671875 285.207031 C 220.230469 281.128906 223.1875 277.289062 226.539062 273.6875 C 229.796875 270.300781 233.46875 267.398438 237.554688 264.988281 C 246.023438 260.167969 254.902344 257.914062 264.1875 258.230469 C 269.375 258.3125 274.0625 259.023438 278.25 260.363281 C 280.875 261.070312 284.335938 262.582031 288.628906 264.898438 C 292.695312 267.238281 296.441406 270.183594 299.867188 273.734375 C 303.300781 277.453125 306.207031 281.1875 308.585938 284.929688 C 305.816406 275.507812 299.96875 267.683594 291.046875 261.445312 C 286.246094 258.238281 281.597656 256.003906 277.105469 254.746094 C 275.546875 254.28125 273.832031 253.859375 271.964844 253.476562 C 270.117188 253.0625 267.507812 252.769531 264.140625 252.59375 C 253.839844 252.464844 244.175781 255.425781 235.144531 261.46875 C 231.105469 264.1875 227.402344 267.71875 224.035156 272.0625 C 222.691406 273.789062 221.355469 275.910156 220.027344 278.425781 C 218.621094 281.113281 217.828125 283.382812 217.640625 285.242188 " fill-opacity="1" fill-rule="nonzero"/></g><g clip-path="url(#ff41fb63d6)"><path fill="#7c945a" d="M 249.507812 241.023438 L 276.703125 241.023438 L 276.703125 256.492188 L 249.507812 256.492188 Z M 249.507812 241.023438 " fill-opacity="1" fill-rule="nonzero"/></g><g clip-path="url(#c0d187208c)"><path fill="#7c945a" d="M 247.523438 452.914062 L 247.535156 452.902344 C 248.410156 451.503906 249.425781 450.1875 250.574219 448.953125 C 251.691406 447.789062 252.949219 446.796875 254.351562 445.96875 C 257.253906 444.316406 260.296875 443.546875 263.480469 443.652344 C 265.257812 443.683594 266.863281 443.925781 268.300781 444.386719 C 269.199219 444.628906 270.386719 445.144531 271.855469 445.941406 C 273.25 446.742188 274.535156 447.75 275.710938 448.96875 C 276.886719 450.242188 277.882812 451.523438 278.699219 452.804688 C 277.75 449.578125 275.746094 446.894531 272.6875 444.757812 C 271.039062 443.65625 269.445312 442.890625 267.90625 442.460938 C 267.371094 442.300781 266.785156 442.15625 266.144531 442.023438 C 265.511719 441.882812 264.617188 441.78125 263.460938 441.722656 C 259.933594 441.679688 256.617188 442.691406 253.523438 444.765625 C 252.140625 445.695312 250.871094 446.90625 249.714844 448.394531 C 249.253906 448.988281 248.796875 449.714844 248.339844 450.574219 C 247.859375 451.496094 247.589844 452.277344 247.523438 452.914062 " fill-opacity="1" fill-rule="nonzero"/></g><g clip-path="url(#f3a675429c)"><path fill="#7c945a" d="M 255.515625 433.054688 L 270.820312 433.054688 L 270.820312 442.519531 L 255.515625 442.519531 Z M 255.515625 433.054688 " fill-opacity="1" fill-rule="nonzero"/></g><g clip-path="url(#da5ced4526)"><path fill="#f9fa99" d="M 255.515625 418.097656 L 270.820312 418.097656 L 270.820312 427.5625 L 255.515625 427.5625 Z M 255.515625 418.097656 " fill-opacity="1" fill-rule="nonzero"/></g><g clip-path="url(#b7d5bd3e63)"><path fill="#f9fa99" d="M 247.523438 437.777344 L 247.535156 437.765625 C 248.410156 436.367188 249.425781 435.050781 250.574219 433.816406 C 251.691406 432.652344 252.949219 431.660156 254.351562 430.832031 C 257.253906 429.179688 260.296875 428.410156 263.480469 428.515625 C 265.257812 428.546875 266.863281 428.789062 268.300781 429.25 C 269.199219 429.492188 270.386719 430.007812 271.855469 430.804688 C 273.25 431.605469 274.535156 432.613281 275.710938 433.832031 C 276.886719 435.105469 277.882812 436.386719 278.699219 437.667969 C 277.75 434.441406 275.746094 431.757812 272.6875 429.621094 C 271.039062 428.519531 269.445312 427.753906 267.90625 427.324219 C 267.371094 427.164062 266.785156 427.019531 266.144531 426.886719 C 265.511719 426.746094 264.617188 426.644531 263.460938 426.585938 C 259.933594 426.542969 256.617188 427.554688 253.523438 429.628906 C 252.140625 430.558594 250.871094 431.769531 249.714844 433.257812 C 249.253906 433.851562 248.796875 434.578125 248.339844 435.4375 C 247.859375 436.359375 247.589844 437.140625 247.523438 437.777344 " fill-opacity="1" fill-rule="nonzero"/></g><g clip-path="url(#3b39a4365d)"><path fill="#7c945a" d="M 268.675781 323.042969 L 268.671875 323.046875 C 268.359375 323.542969 268.003906 324.007812 267.597656 324.441406 C 267.203125 324.851562 266.757812 325.203125 266.265625 325.496094 C 265.238281 326.078125 264.164062 326.351562 263.039062 326.3125 C 262.414062 326.304688 261.84375 326.21875 261.339844 326.054688 C 261.019531 325.96875 260.601562 325.785156 260.082031 325.507812 C 259.589844 325.222656 259.136719 324.867188 258.722656 324.4375 C 258.304688 323.988281 257.953125 323.535156 257.667969 323.082031 C 258.003906 324.222656 258.710938 325.167969 259.789062 325.925781 C 260.371094 326.3125 260.933594 326.582031 261.476562 326.734375 C 261.667969 326.789062 261.875 326.84375 262.097656 326.886719 C 262.324219 326.9375 262.640625 326.972656 263.046875 326.996094 C 264.292969 327.011719 265.464844 326.652344 266.554688 325.921875 C 267.046875 325.59375 267.492188 325.164062 267.902344 324.640625 C 268.0625 324.429688 268.226562 324.171875 268.386719 323.867188 C 268.554688 323.542969 268.652344 323.269531 268.675781 323.042969 " fill-opacity="1" fill-rule="nonzero"/></g><g clip-path="url(#44d8a5195e)"><path fill="#7c945a" d="M 260.785156 326.773438 L 265.574219 326.773438 L 265.574219 331.089844 L 260.785156 331.089844 Z M 260.785156 326.773438 " fill-opacity="1" fill-rule="nonzero"/></g><path stroke-linecap="butt" transform="matrix(-0.64641, 0.0314695, -0.0314695, -0.64641, 322.767573, 405.962795)" fill="none" stroke-linejoin="miter" d="M 3.252275 32.932359 C 39.452279 -4.977549 69.818428 -4.979752 94.356457 32.932072 " stroke="#7c945a" stroke-width="9" stroke-opacity="1" stroke-miterlimit="4"/><path stroke-linecap="butt" transform="matrix(-0.646786, -0.0224336, 0.0224336, -0.646786, 268.564435, 408.946144)" fill="none" stroke-linejoin="miter" d="M 3.61112 32.80929 C 31.635623 -4.937094 61.863277 -4.934665 94.305938 32.810127 " stroke="#7c945a" stroke-width="9" stroke-opacity="1" stroke-miterlimit="4"/></svg>