<svg xmlns="http://www.w3.org/2000/svg" xmlns:xlink="http://www.w3.org/1999/xlink" width="1028" zoomAndPan="magnify" viewBox="0 0 770.88 770.999999" height="1028" preserveAspectRatio="xMidYMid meet" version="1.0"><defs><clipPath id="d8b7b2a9b9"><path d="M 0 0.0585938 L 770.761719 0.0585938 L 770.761719 770.9375 L 0 770.9375 Z M 0 0.0585938 " clip-rule="nonzero"/></clipPath><clipPath id="a57d594c55"><path d="M 385.441406 0.0585938 C 172.566406 0.0585938 0 172.628906 0 385.5 C 0 598.371094 172.566406 770.941406 385.441406 770.941406 C 598.3125 770.941406 770.878906 598.371094 770.878906 385.5 C 770.878906 172.628906 598.3125 0.0585938 385.441406 0.0585938 Z M 385.441406 0.0585938 " clip-rule="nonzero"/></clipPath><clipPath id="fb70512ca1"><path d="M 33.277344 36.421875 L 731.4375 36.421875 L 731.4375 734.578125 L 33.277344 734.578125 Z M 33.277344 36.421875 " clip-rule="nonzero"/></clipPath><clipPath id="7ca5e67215"><path d="M 382.355469 36.421875 C 189.566406 36.421875 33.277344 192.707031 33.277344 385.5 C 33.277344 578.292969 189.566406 734.578125 382.355469 734.578125 C 575.148438 734.578125 731.4375 578.292969 731.4375 385.5 C 731.4375 192.707031 575.148438 36.421875 382.355469 36.421875 Z M 382.355469 36.421875 " clip-rule="nonzero"/></clipPath><clipPath id="4483c3bacf"><path d="M 240.871094 368.558594 L 534.746094 368.558594 L 534.746094 504.113281 L 240.871094 504.113281 Z M 240.871094 368.558594 " clip-rule="nonzero"/></clipPath><clipPath id="eeb219bf93"><path d="M 338 240.019531 L 416 240.019531 L 416 501 L 338 501 Z M 338 240.019531 " clip-rule="nonzero"/></clipPath><clipPath id="3e6f386ea5"><path d="M 341.296875 281.429688 C 329.378906 321.308594 339.445312 360.125 344.988281 380.726562 L 377.398438 500.949219 L 409.125 381.15625 C 414.277344 358.996094 417.675781 335.488281 415.15625 309.3125 C 413.640625 273.101562 405.925781 245.007812 396.390625 240.996094 C 390.542969 238.890625 384.894531 244.957031 380.484375 259.125 C 379.300781 262.933594 378.238281 267.195312 377.316406 271.824219 C 376.21875 266.554688 374.933594 261.730469 373.476562 257.453125 C 368.40625 242.558594 361.953125 237.515625 355.757812 241.242188 C 349.886719 245.628906 344.617188 260.269531 341.296875 281.429688 Z M 341.296875 281.429688 " clip-rule="nonzero"/></clipPath><clipPath id="b382cf66a7"><path d="M 172 316.367188 L 587 316.367188 L 587 674 L 172 674 Z M 172 316.367188 " clip-rule="nonzero"/></clipPath><clipPath id="e244bcf66c"><path d="M 569.769531 616.800781 C 603.339844 562.21875 579.6875 509.097656 549.96875 480.902344 L 376.195312 316.367188 L 206.09375 480.3125 C 178.449219 510.644531 167.855469 542.816406 173.738281 578.640625 C 181.867188 628.199219 223.25 666.648438 274.367188 672.136719 C 305.71875 675.488281 336.003906 666.710938 359.640625 647.328125 C 366.003906 642.113281 371.6875 636.28125 376.644531 629.945312 C 382.523438 637.160156 389.417969 643.761719 397.21875 649.609375 C 424.398438 669.996094 459 678.148438 492.234375 671.796875 C 523.710938 665.796875 551.964844 645.757812 569.769531 616.800781 Z M 569.769531 616.800781 " clip-rule="nonzero"/></clipPath><clipPath id="603bb2e6e2"><path d="M 207 346.730469 L 552 346.730469 L 552 645 L 207 645 Z M 207 346.730469 " clip-rule="nonzero"/></clipPath><clipPath id="010bb9255a"><path d="M 537.726562 596.761719 C 565.664062 551.339844 545.984375 507.128906 521.25 483.660156 L 376.628906 346.730469 L 235.058594 483.171875 C 212.054688 508.414062 203.238281 535.191406 208.132812 565.003906 C 214.898438 606.25 249.335938 638.246094 291.878906 642.816406 C 317.972656 645.605469 343.175781 638.300781 362.847656 622.167969 C 368.144531 617.828125 372.875 612.976562 377 607.703125 C 381.894531 613.707031 387.632812 619.199219 394.121094 624.070312 C 416.746094 641.035156 445.539062 647.820312 473.199219 642.535156 C 499.398438 637.539062 522.910156 620.863281 537.726562 596.761719 Z M 537.726562 596.761719 " clip-rule="nonzero"/></clipPath><clipPath id="7f2f2e5d50"><path d="M 313 456.039062 L 440.878906 456.039062 L 440.878906 566.65625 L 313 566.65625 Z M 313 456.039062 " clip-rule="nonzero"/></clipPath><clipPath id="4d98d79d90"><path d="M 318.101562 474.0625 C 307.753906 490.882812 315.042969 507.257812 324.203125 515.949219 L 377.761719 566.660156 L 430.1875 516.128906 C 438.707031 506.78125 441.972656 496.863281 440.160156 485.824219 C 437.652344 470.550781 424.898438 458.699219 409.144531 457.007812 C 399.484375 455.972656 390.148438 458.679688 382.863281 464.652344 C 380.902344 466.261719 379.148438 468.058594 377.621094 470.011719 C 375.808594 467.789062 373.683594 465.753906 371.28125 463.949219 C 362.902344 457.667969 352.242188 455.15625 341.996094 457.113281 C 332.296875 458.960938 323.585938 465.136719 318.101562 474.0625 Z M 318.101562 474.0625 " clip-rule="nonzero"/></clipPath><clipPath id="f04bc9a543"><path d="M 168 117 L 376 117 L 376 398 L 168 398 Z M 168 117 " clip-rule="nonzero"/></clipPath><clipPath id="bbf387deb2"><path d="M 144.753906 139.515625 L 343.308594 99.335938 L 399.339844 376.226562 L 200.789062 416.40625 Z M 144.753906 139.515625 " clip-rule="nonzero"/></clipPath><clipPath id="8d82de01e4"><path d="M 244.03125 119.425781 C 189.203125 130.523438 157.265625 201.339844 172.699219 277.597656 C 188.128906 353.859375 245.089844 406.6875 299.917969 395.589844 C 354.746094 384.496094 386.683594 313.679688 371.25 237.417969 C 355.820312 161.15625 298.859375 108.332031 244.03125 119.425781 Z M 244.03125 119.425781 " clip-rule="nonzero"/></clipPath><clipPath id="fce21e8327"><path d="M 203 152 L 341 152 L 341 374 L 203 374 Z M 203 152 " clip-rule="nonzero"/></clipPath><clipPath id="ba85eb8e1a"><path d="M 185.617188 165.582031 L 315.109375 140.101562 L 358.40625 360.136719 L 228.914062 385.617188 Z M 185.617188 165.582031 " clip-rule="nonzero"/></clipPath><clipPath id="aaca3df943"><path d="M 250.363281 152.839844 C 214.605469 159.875 195.292969 214.753906 207.226562 275.414062 C 219.164062 336.078125 257.828125 379.546875 293.585938 372.511719 C 329.34375 365.476562 348.65625 310.597656 336.722656 249.9375 C 324.785156 189.277344 286.121094 145.804688 250.363281 152.839844 Z M 250.363281 152.839844 " clip-rule="nonzero"/></clipPath><clipPath id="461e4d180d"><path d="M 50 295 L 252 295 L 252 512 L 50 512 Z M 50 295 " clip-rule="nonzero"/></clipPath><clipPath id="b6034e040d"><path d="M 8.984375 363.808594 L 152.605469 255.972656 L 293.71875 443.914062 L 150.097656 551.75 Z M 8.984375 363.808594 " clip-rule="nonzero"/></clipPath><clipPath id="7eaa2ceafe"><path d="M 80.796875 309.890625 C 41.136719 339.667969 40.496094 405.777344 79.367188 457.546875 C 118.238281 509.316406 181.898438 527.144531 221.558594 497.363281 C 261.21875 467.585938 261.859375 401.480469 222.988281 349.710938 C 184.117188 297.941406 120.453125 280.113281 80.796875 309.890625 Z M 80.796875 309.890625 " clip-rule="nonzero"/></clipPath><clipPath id="ede6fa264a"><path d="M 88 330 L 231 330 L 231 477 L 88 477 Z M 88 330 " clip-rule="nonzero"/></clipPath><clipPath id="729c0eba2b"><path d="M 60.164062 381.4375 L 145.804688 302.84375 L 258.476562 425.613281 L 172.835938 504.207031 Z M 60.164062 381.4375 " clip-rule="nonzero"/></clipPath><clipPath id="c647cb663c"><path d="M 102.984375 342.140625 C 79.335938 363.84375 85.367188 408.898438 116.457031 442.769531 C 147.542969 476.644531 191.914062 486.511719 215.5625 464.808594 C 239.214844 443.105469 233.183594 398.050781 202.09375 364.175781 C 171.007812 330.304688 126.632812 320.4375 102.984375 342.140625 Z M 102.984375 342.140625 " clip-rule="nonzero"/></clipPath><clipPath id="67740c7ebd"><path d="M 379 122 L 590 122 L 590 399 L 379 399 Z M 379 122 " clip-rule="nonzero"/></clipPath><clipPath id="374442a6ce"><path d="M 426.28125 97.105469 L 620.769531 153.785156 L 541.726562 425.003906 L 347.238281 368.324219 Z M 426.28125 97.105469 " clip-rule="nonzero"/></clipPath><clipPath id="9c73af0227"><path d="M 523.523438 125.445312 C 469.816406 109.792969 408.632812 157.660156 386.863281 232.359375 C 365.09375 307.058594 390.984375 380.300781 444.691406 395.953125 C 498.394531 411.605469 559.582031 363.738281 581.351562 289.039062 C 603.121094 214.339844 577.230469 141.09375 523.523438 125.445312 Z M 523.523438 125.445312 " clip-rule="nonzero"/></clipPath><clipPath id="d8e4f0f85c"><path d="M 413 151 L 555 151 L 555 370 L 413 370 Z M 413 151 " clip-rule="nonzero"/></clipPath><clipPath id="ce81c374ef"><path d="M 452.753906 134.59375 L 579.257812 172.199219 L 515.355469 387.160156 L 388.851562 349.550781 Z M 452.753906 134.59375 " clip-rule="nonzero"/></clipPath><clipPath id="e7450c5c23"><path d="M 516.003906 153.398438 C 481.070312 143.011719 438.472656 182.632812 420.855469 241.894531 C 403.238281 301.15625 417.277344 357.613281 452.207031 367.996094 C 487.140625 378.382812 529.742188 338.761719 547.359375 279.5 C 564.976562 220.242188 550.9375 163.78125 516.003906 153.398438 Z M 516.003906 153.398438 " clip-rule="nonzero"/></clipPath><clipPath id="6abd6dd874"><path d="M 507 299 L 716 299 L 716 510 L 507 510 Z M 507 299 " clip-rule="nonzero"/></clipPath><clipPath id="53981bfa2a"><path d="M 628.113281 257.890625 L 757.296875 382.660156 L 594.027344 551.707031 L 464.84375 426.941406 Z M 628.113281 257.890625 " clip-rule="nonzero"/></clipPath><clipPath id="ec1112dab5"><path d="M 692.707031 320.277344 C 657.035156 285.824219 591.65625 295.640625 546.679688 342.207031 C 501.707031 388.773438 494.167969 454.453125 529.839844 488.90625 C 565.511719 523.359375 630.890625 513.539062 675.863281 466.976562 C 720.839844 420.410156 728.378906 354.730469 692.707031 320.277344 Z M 692.707031 320.277344 " clip-rule="nonzero"/></clipPath><clipPath id="d35972e302"><path d="M 529 327 L 677 327 L 677 480 L 529 480 Z M 529 327 " clip-rule="nonzero"/></clipPath><clipPath id="544062fda3"><path d="M 615.9375 298.648438 L 705.847656 379.53125 L 589.894531 508.425781 L 499.984375 427.542969 Z M 615.9375 298.648438 " clip-rule="nonzero"/></clipPath><clipPath id="61715f90e1"><path d="M 660.894531 339.089844 C 636.066406 316.753906 590.003906 327.476562 558.007812 363.042969 C 526.015625 398.605469 520.207031 445.539062 545.035156 467.875 C 569.863281 490.210938 615.925781 479.488281 647.917969 443.925781 C 679.910156 408.359375 685.722656 361.425781 660.894531 339.089844 Z M 660.894531 339.089844 " clip-rule="nonzero"/></clipPath><clipPath id="7d3d5fea5f"><path d="M 311.570312 362.066406 L 442.445312 362.066406 L 442.445312 409.40625 L 311.570312 409.40625 Z M 311.570312 362.066406 " clip-rule="nonzero"/></clipPath><clipPath id="3046790c4b"><path d="M 357.328125 345.734375 L 396.355469 345.734375 L 396.355469 367.921875 L 357.328125 367.921875 Z M 357.328125 345.734375 " clip-rule="nonzero"/></clipPath><clipPath id="1033f4bb29"><path d="M 354.460938 633.484375 L 399.011719 633.484375 L 399.011719 649.265625 L 354.460938 649.265625 Z M 354.460938 633.484375 " clip-rule="nonzero"/></clipPath><clipPath id="ee5b5d0ecb"><path d="M 365.941406 621.144531 L 387.917969 621.144531 L 387.917969 634.714844 L 365.941406 634.714844 Z M 365.941406 621.144531 " clip-rule="nonzero"/></clipPath><clipPath id="39091e7513"><path d="M 365.941406 599.695312 L 387.917969 599.695312 L 387.917969 613.269531 L 365.941406 613.269531 Z M 365.941406 599.695312 " clip-rule="nonzero"/></clipPath><clipPath id="9e8d3108c4"><path d="M 354.460938 611.777344 L 399.011719 611.777344 L 399.011719 627.554688 L 354.460938 627.554688 Z M 354.460938 611.777344 " clip-rule="nonzero"/></clipPath><clipPath id="a5784d04c0"><path d="M 369.042969 463.496094 L 384.820312 463.496094 L 384.820312 469.066406 L 369.042969 469.066406 Z M 369.042969 463.496094 " clip-rule="nonzero"/></clipPath><clipPath id="ce54ea40a9"><path d="M 373.503906 468.71875 L 380.359375 468.71875 L 380.359375 474.910156 L 373.503906 474.910156 Z M 373.503906 468.71875 " clip-rule="nonzero"/></clipPath></defs><g clip-path="url(#d8b7b2a9b9)"><g clip-path="url(#a57d594c55)"><path fill="#7c945a" d="M 0 0.0585938 L 770.878906 0.0585938 L 770.878906 770.941406 L 0 770.941406 Z M 0 0.0585938 " fill-opacity="1" fill-rule="nonzero"/></g></g><g clip-path="url(#fb70512ca1)"><g clip-path="url(#7ca5e67215)"><path fill="#f9fa99" d="M 33.277344 36.421875 L 731.4375 36.421875 L 731.4375 734.578125 L 33.277344 734.578125 Z M 33.277344 36.421875 " fill-opacity="1" fill-rule="nonzero"/></g></g><g clip-path="url(#4483c3bacf)"><path fill="#7c945a" d="M 240.871094 368.558594 L 534.742188 368.558594 L 534.742188 504.113281 L 240.871094 504.113281 Z M 240.871094 368.558594 " fill-opacity="1" fill-rule="nonzero"/></g><g clip-path="url(#eeb219bf93)"><g clip-path="url(#3e6f386ea5)"><path fill="#7c945a" d="M 338.234375 239.71875 L 415.449219 239.71875 L 415.449219 500.925781 L 338.234375 500.925781 Z M 338.234375 239.71875 " fill-opacity="1" fill-rule="nonzero"/></g></g><g clip-path="url(#b382cf66a7)"><g clip-path="url(#e244bcf66c)"><path fill="#7c945a" d="M 586.183594 673.886719 L 172.800781 673.886719 L 172.800781 316.367188 L 586.183594 316.367188 Z M 586.183594 673.886719 " fill-opacity="1" fill-rule="nonzero"/></g></g><g clip-path="url(#603bb2e6e2)"><g clip-path="url(#010bb9255a)"><path fill="#f9fa99" d="M 551.386719 644.273438 L 207.355469 644.273438 L 207.355469 346.730469 L 551.386719 346.730469 Z M 551.386719 644.273438 " fill-opacity="1" fill-rule="nonzero"/></g></g><g clip-path="url(#7f2f2e5d50)"><g clip-path="url(#4d98d79d90)"><path fill="#7c945a" d="M 313.042969 456.46875 L 440.449219 456.46875 L 440.449219 566.65625 L 313.042969 566.65625 Z M 313.042969 456.46875 " fill-opacity="1" fill-rule="nonzero"/></g></g><g clip-path="url(#f04bc9a543)"><g clip-path="url(#bbf387deb2)"><g clip-path="url(#8d82de01e4)"><path fill="#7c945a" d="M 144.753906 139.515625 L 343.308594 99.335938 L 399.183594 375.449219 L 200.628906 415.628906 Z M 144.753906 139.515625 " fill-opacity="1" fill-rule="nonzero"/></g></g></g><g clip-path="url(#fce21e8327)"><g clip-path="url(#ba85eb8e1a)"><g clip-path="url(#aaca3df943)"><path fill="#f9fa99" d="M 185.617188 165.582031 L 315.109375 140.101562 L 358.304688 359.628906 L 228.8125 385.109375 Z M 185.617188 165.582031 " fill-opacity="1" fill-rule="nonzero"/></g></g></g><g clip-path="url(#461e4d180d)"><g clip-path="url(#b6034e040d)"><g clip-path="url(#7eaa2ceafe)"><path fill="#7c945a" d="M 8.984375 363.808594 L 152.605469 255.972656 L 293.296875 443.351562 L 149.675781 551.1875 Z M 8.984375 363.808594 " fill-opacity="1" fill-rule="nonzero"/></g></g></g><g clip-path="url(#ede6fa264a)"><g clip-path="url(#729c0eba2b)"><g clip-path="url(#c647cb663c)"><path fill="#f9fa99" d="M 60.164062 381.4375 L 145.804688 302.84375 L 258.476562 425.613281 L 172.835938 504.207031 Z M 60.164062 381.4375 " fill-opacity="1" fill-rule="nonzero"/></g></g></g><g clip-path="url(#67740c7ebd)"><g clip-path="url(#374442a6ce)"><g clip-path="url(#9c73af0227)"><path fill="#7c945a" d="M 426.28125 97.105469 L 620.769531 153.785156 L 541.949219 424.242188 L 347.460938 367.5625 Z M 426.28125 97.105469 " fill-opacity="1" fill-rule="nonzero"/></g></g></g><g clip-path="url(#d8e4f0f85c)"><g clip-path="url(#ce81c374ef)"><g clip-path="url(#e7450c5c23)"><path fill="#f9fa99" d="M 452.753906 134.59375 L 579.257812 172.199219 L 515.5 386.664062 L 388.996094 349.058594 Z M 452.753906 134.59375 " fill-opacity="1" fill-rule="nonzero"/></g></g></g><g clip-path="url(#6abd6dd874)"><g clip-path="url(#53981bfa2a)"><g clip-path="url(#ec1112dab5)"><path fill="#7c945a" d="M 628.113281 257.890625 L 757.296875 382.660156 L 594.511719 551.203125 L 465.332031 426.433594 Z M 628.113281 257.890625 " fill-opacity="1" fill-rule="nonzero"/></g></g></g><g clip-path="url(#d35972e302)"><g clip-path="url(#544062fda3)"><g clip-path="url(#61715f90e1)"><path fill="#f9fa99" d="M 615.9375 298.648438 L 705.847656 379.53125 L 589.894531 508.425781 L 499.984375 427.542969 Z M 615.9375 298.648438 " fill-opacity="1" fill-rule="nonzero"/></g></g></g><g clip-path="url(#7d3d5fea5f)"><path fill="#7c945a" d="M 311.628906 409.152344 L 311.671875 409.101562 C 315.339844 403.253906 319.578125 397.746094 324.386719 392.578125 C 329.058594 387.722656 334.324219 383.5625 340.1875 380.101562 C 352.332031 373.191406 365.0625 369.960938 378.382812 370.410156 C 385.824219 370.53125 392.546875 371.550781 398.550781 373.472656 C 402.316406 374.488281 407.277344 376.65625 413.4375 379.976562 C 419.269531 383.332031 424.640625 387.554688 429.554688 392.648438 C 434.480469 397.984375 438.648438 403.335938 442.058594 408.707031 C 438.085938 395.195312 429.703125 383.96875 416.90625 375.027344 C 410.015625 370.425781 403.351562 367.222656 396.914062 365.417969 C 394.671875 364.75 392.214844 364.144531 389.535156 363.597656 C 386.886719 363.003906 383.144531 362.578125 378.3125 362.328125 C 363.542969 362.144531 349.679688 366.390625 336.726562 375.058594 C 330.933594 378.957031 325.625 384.019531 320.796875 390.253906 C 318.871094 392.726562 316.953125 395.765625 315.046875 399.375 C 313.035156 403.230469 311.894531 406.488281 311.628906 409.152344 " fill-opacity="1" fill-rule="nonzero"/></g><g clip-path="url(#3046790c4b)"><path fill="#7c945a" d="M 357.328125 345.734375 L 396.332031 345.734375 L 396.332031 367.921875 L 357.328125 367.921875 Z M 357.328125 345.734375 " fill-opacity="1" fill-rule="nonzero"/></g><g clip-path="url(#1033f4bb29)"><path fill="#7c945a" d="M 354.484375 649.625 L 354.5 649.609375 C 355.757812 647.601562 357.210938 645.714844 358.859375 643.945312 C 360.457031 642.28125 362.265625 640.855469 364.273438 639.667969 C 368.4375 637.296875 372.800781 636.191406 377.367188 636.347656 C 379.917969 636.386719 382.222656 636.738281 384.28125 637.394531 C 385.570312 637.742188 387.273438 638.484375 389.382812 639.625 C 391.382812 640.773438 393.222656 642.222656 394.90625 643.96875 C 396.59375 645.796875 398.023438 647.632812 399.195312 649.472656 C 397.832031 644.839844 394.957031 640.992188 390.570312 637.925781 C 388.210938 636.351562 385.925781 635.253906 383.71875 634.632812 C 382.949219 634.40625 382.105469 634.199219 381.191406 634.007812 C 380.28125 633.804688 379 633.660156 377.34375 633.574219 C 372.28125 633.511719 367.527344 634.96875 363.089844 637.9375 C 361.101562 639.273438 359.28125 641.011719 357.628906 643.148438 C 356.964844 643.996094 356.308594 645.039062 355.65625 646.273438 C 354.964844 647.59375 354.574219 648.710938 354.484375 649.625 " fill-opacity="1" fill-rule="nonzero"/></g><g clip-path="url(#ee5b5d0ecb)"><path fill="#7c945a" d="M 365.941406 621.144531 L 387.894531 621.144531 L 387.894531 634.714844 L 365.941406 634.714844 Z M 365.941406 621.144531 " fill-opacity="1" fill-rule="nonzero"/></g><g clip-path="url(#39091e7513)"><path fill="#f9fa99" d="M 365.941406 599.695312 L 387.894531 599.695312 L 387.894531 613.269531 L 365.941406 613.269531 Z M 365.941406 599.695312 " fill-opacity="1" fill-rule="nonzero"/></g><g clip-path="url(#9e8d3108c4)"><path fill="#f9fa99" d="M 354.484375 627.917969 L 354.5 627.898438 C 355.757812 625.894531 357.210938 624.007812 358.859375 622.234375 C 360.457031 620.570312 362.265625 619.144531 364.273438 617.957031 C 368.4375 615.589844 372.800781 614.480469 377.367188 614.636719 C 379.917969 614.679688 382.222656 615.027344 384.28125 615.6875 C 385.570312 616.035156 387.273438 616.777344 389.382812 617.914062 C 391.382812 619.066406 393.222656 620.515625 394.90625 622.257812 C 396.59375 624.089844 398.023438 625.921875 399.195312 627.761719 C 397.832031 623.132812 394.957031 619.285156 390.570312 616.21875 C 388.210938 614.640625 385.925781 613.542969 383.71875 612.925781 C 382.949219 612.695312 382.105469 612.488281 381.191406 612.300781 C 380.28125 612.097656 379 611.953125 377.34375 611.867188 C 372.28125 611.804688 367.527344 613.257812 363.089844 616.230469 C 361.101562 617.566406 359.28125 619.300781 357.628906 621.4375 C 356.964844 622.285156 356.308594 623.328125 355.65625 624.566406 C 354.964844 625.886719 354.574219 627.003906 354.484375 627.917969 " fill-opacity="1" fill-rule="nonzero"/></g><g clip-path="url(#a5784d04c0)"><path fill="#7c945a" d="M 384.816406 463.367188 L 384.8125 463.375 C 384.367188 464.082031 383.855469 464.75 383.273438 465.375 C 382.707031 465.960938 382.070312 466.464844 381.359375 466.882812 C 379.890625 467.71875 378.351562 468.113281 376.738281 468.058594 C 375.835938 468.042969 375.023438 467.917969 374.296875 467.6875 C 373.839844 467.5625 373.242188 467.300781 372.496094 466.898438 C 371.789062 466.492188 371.140625 465.980469 370.542969 465.367188 C 369.949219 464.71875 369.445312 464.070312 369.03125 463.421875 C 369.511719 465.058594 370.527344 466.414062 372.074219 467.5 C 372.910156 468.054688 373.714844 468.441406 374.496094 468.660156 C 374.765625 468.742188 375.0625 468.816406 375.386719 468.882812 C 375.707031 468.953125 376.160156 469.003906 376.746094 469.035156 C 378.535156 469.058594 380.210938 468.542969 381.78125 467.496094 C 382.480469 467.023438 383.125 466.410156 383.707031 465.65625 C 383.941406 465.355469 384.171875 464.988281 384.402344 464.550781 C 384.648438 464.085938 384.785156 463.691406 384.816406 463.367188 " fill-opacity="1" fill-rule="nonzero"/></g><g clip-path="url(#ce54ea40a9)"><path fill="#7c945a" d="M 373.503906 468.71875 L 380.371094 468.71875 L 380.371094 474.910156 L 373.503906 474.910156 Z M 373.503906 468.71875 " fill-opacity="1" fill-rule="nonzero"/></g><path stroke-linecap="butt" transform="matrix(-0.927078, 0.0451334, -0.0451334, -0.927078, 462.397801, 582.289762)" fill="none" stroke-linejoin="miter" d="M 3.254251 32.931857 C 39.452483 -4.976075 69.819272 -4.976655 94.354619 32.930117 " stroke="#7c945a" stroke-width="9" stroke-opacity="1" stroke-miterlimit="4"/><path stroke-linecap="butt" transform="matrix(-0.927618, -0.0321742, 0.0321742, -0.927618, 384.65993, 586.568535)" fill="none" stroke-linejoin="miter" d="M 3.613774 32.807407 C 31.634675 -4.935429 61.865842 -4.935437 94.303071 32.807528 " stroke="#7c945a" stroke-width="9" stroke-opacity="1" stroke-miterlimit="4"/></svg>