<svg xmlns="http://www.w3.org/2000/svg" xmlns:xlink="http://www.w3.org/1999/xlink" width="2056" zoomAndPan="magnify" viewBox="0 0 1542 537.750006" height="717" preserveAspectRatio="xMidYMid meet" version="1.0"><defs><g/><clipPath id="1c6cbcd46f"><path d="M 800.785156 350 L 870.886719 350 L 870.886719 370 L 800.785156 370 Z M 922.011719 350 L 1192 350 L 1192 370 L 922.011719 370 Z M 562 350 L 749.664062 350 L 749.664062 370 L 562 370 Z M 562 350 " clip-rule="nonzero"/></clipPath><clipPath id="a733d25a2f"><path d="M 1247.585938 350 L 1541.640625 350 L 1541.640625 370 L 1247.585938 370 Z M 1191 350 L 1196.464844 350 L 1196.464844 370 L 1191 370 Z M 1191 350 " clip-rule="nonzero"/></clipPath><clipPath id="14908e65f3"><path d="M 0.359375 0 L 537.859375 0 L 537.859375 537.5 L 0.359375 537.5 Z M 0.359375 0 " clip-rule="nonzero"/></clipPath><clipPath id="cf363224e3"><path d="M 269.109375 0 C 120.683594 0 0.359375 120.324219 0.359375 268.75 C 0.359375 417.175781 120.683594 537.5 269.109375 537.5 C 417.535156 537.5 537.859375 417.175781 537.859375 268.75 C 537.859375 120.324219 417.535156 0 269.109375 0 Z M 269.109375 0 " clip-rule="nonzero"/></clipPath><clipPath id="9fc8816988"><path d="M 23.5625 25.351562 L 510.355469 25.351562 L 510.355469 512.148438 L 23.5625 512.148438 Z M 23.5625 25.351562 " clip-rule="nonzero"/></clipPath><clipPath id="849e24878f"><path d="M 266.957031 25.351562 C 132.535156 25.351562 23.5625 134.324219 23.5625 268.75 C 23.5625 403.175781 132.535156 512.148438 266.957031 512.148438 C 401.382812 512.148438 510.355469 403.175781 510.355469 268.75 C 510.355469 134.324219 401.382812 25.351562 266.957031 25.351562 Z M 266.957031 25.351562 " clip-rule="nonzero"/></clipPath><clipPath id="4ab6e210bc"><path d="M 168.308594 256.9375 L 373.210938 256.9375 L 373.210938 351.453125 L 168.308594 351.453125 Z M 168.308594 256.9375 " clip-rule="nonzero"/></clipPath><clipPath id="72f9464104"><path d="M 236 167.3125 L 290.453125 167.3125 L 290.453125 349.441406 L 236 349.441406 Z M 236 167.3125 " clip-rule="nonzero"/></clipPath><clipPath id="40a5f54935"><path d="M 238.328125 196.1875 C 230.019531 223.992188 237.039062 251.058594 240.902344 265.421875 L 263.5 349.25 L 285.621094 265.722656 C 289.214844 250.269531 291.585938 233.878906 289.828125 215.628906 C 288.773438 190.378906 283.390625 170.789062 276.742188 167.992188 C 272.667969 166.523438 268.726562 170.757812 265.652344 180.632812 C 264.828125 183.289062 264.085938 186.261719 263.441406 189.488281 C 262.679688 185.8125 261.78125 182.449219 260.765625 179.46875 C 257.234375 169.082031 252.734375 165.570312 248.410156 168.167969 C 244.316406 171.222656 240.644531 181.433594 238.328125 196.1875 Z M 238.328125 196.1875 " clip-rule="nonzero"/></clipPath><clipPath id="b39d17d7d6"><path d="M 120 220.546875 L 410 220.546875 L 410 470 L 120 470 Z M 120 220.546875 " clip-rule="nonzero"/></clipPath><clipPath id="e119807795"><path d="M 397.632812 430.023438 C 421.039062 391.96875 404.550781 354.929688 383.828125 335.269531 L 262.664062 220.546875 L 144.058594 334.859375 C 124.785156 356.007812 117.394531 378.441406 121.5 403.417969 C 127.167969 437.972656 156.019531 464.78125 191.660156 468.609375 C 213.519531 470.945312 234.636719 464.828125 251.121094 451.3125 C 255.554688 447.675781 259.519531 443.609375 262.976562 439.191406 C 267.074219 444.222656 271.882812 448.824219 277.320312 452.902344 C 296.273438 467.117188 320.398438 472.800781 343.570312 468.371094 C 365.519531 464.1875 385.21875 450.214844 397.632812 430.023438 Z M 397.632812 430.023438 " clip-rule="nonzero"/></clipPath><clipPath id="5b2eb73d00"><path d="M 144.125 241.714844 L 385 241.714844 L 385 449.992188 L 144.125 449.992188 Z M 144.125 241.714844 " clip-rule="nonzero"/></clipPath><clipPath id="41db180fde"><path d="M 375.292969 416.054688 C 394.769531 384.382812 381.046875 353.554688 363.800781 337.195312 L 262.964844 241.714844 L 164.253906 336.851562 C 148.214844 354.453125 142.066406 373.121094 145.480469 393.910156 C 150.199219 422.667969 174.210938 444.980469 203.875 448.164062 C 222.066406 450.109375 239.640625 445.019531 253.355469 433.769531 C 257.046875 430.742188 260.347656 427.359375 263.222656 423.679688 C 266.636719 427.867188 270.636719 431.699219 275.164062 435.09375 C 290.9375 446.925781 311.011719 451.652344 330.300781 447.96875 C 348.566406 444.484375 364.960938 432.859375 375.292969 416.054688 Z M 375.292969 416.054688 " clip-rule="nonzero"/></clipPath><clipPath id="4cf1577273"><path d="M 218.328125 318 L 307.761719 318 L 307.761719 395.0625 L 218.328125 395.0625 Z M 218.328125 318 " clip-rule="nonzero"/></clipPath><clipPath id="5aea7103e3"><path d="M 222.15625 330.5 C 214.941406 342.230469 220.023438 353.644531 226.410156 359.707031 L 263.753906 395.0625 L 300.308594 359.832031 C 306.25 353.3125 308.527344 346.398438 307.261719 338.699219 C 305.515625 328.050781 296.621094 319.789062 285.636719 318.609375 C 278.898438 317.886719 272.390625 319.773438 267.3125 323.941406 C 265.945312 325.0625 264.722656 326.3125 263.65625 327.675781 C 262.394531 326.125 260.914062 324.707031 259.238281 323.449219 C 253.394531 319.070312 245.960938 317.316406 238.816406 318.683594 C 232.054688 319.972656 225.980469 324.277344 222.15625 330.5 Z M 222.15625 330.5 " clip-rule="nonzero"/></clipPath><clipPath id="d2ebf9a934"><path d="M 118 82 L 262 82 L 262 277 L 118 277 Z M 118 82 " clip-rule="nonzero"/></clipPath><clipPath id="5691add49e"><path d="M 101.289062 97.238281 L 239.730469 69.222656 L 278.800781 262.285156 L 140.359375 290.300781 Z M 101.289062 97.238281 " clip-rule="nonzero"/></clipPath><clipPath id="d6ce0b4f2b"><path d="M 170.511719 83.230469 C 132.28125 90.964844 110.011719 140.34375 120.773438 193.515625 C 131.53125 246.6875 171.246094 283.523438 209.476562 275.785156 C 247.707031 268.050781 269.976562 218.671875 259.214844 165.5 C 248.453125 112.324219 208.738281 75.492188 170.511719 83.230469 Z M 170.511719 83.230469 " clip-rule="nonzero"/></clipPath><clipPath id="b7a1cc7132"><path d="M 142 106 L 238 106 L 238 261 L 142 261 Z M 142 106 " clip-rule="nonzero"/></clipPath><clipPath id="f78970a1d0"><path d="M 129.78125 115.410156 L 220.070312 97.644531 L 250.257812 251.066406 L 159.96875 268.832031 Z M 129.78125 115.410156 " clip-rule="nonzero"/></clipPath><clipPath id="1e6831b55e"><path d="M 174.925781 106.527344 C 149.992188 111.433594 136.527344 149.699219 144.847656 191.992188 C 153.171875 234.289062 180.128906 264.597656 205.0625 259.695312 C 229.996094 254.789062 243.460938 216.523438 235.136719 174.226562 C 226.816406 131.929688 199.855469 101.621094 174.925781 106.527344 Z M 174.925781 106.527344 " clip-rule="nonzero"/></clipPath><clipPath id="e403055824"><path d="M 35 205 L 176 205 L 176 357 L 35 357 Z M 35 205 " clip-rule="nonzero"/></clipPath><clipPath id="b25dc87c40"><path d="M 6.625 253.625 L 106.761719 178.4375 L 205.15625 309.480469 L 105.015625 384.667969 Z M 6.625 253.625 " clip-rule="nonzero"/></clipPath><clipPath id="33cc541d8c"><path d="M 56.691406 216.03125 C 29.039062 236.792969 28.59375 282.886719 55.695312 318.984375 C 82.800781 355.082031 127.1875 367.511719 154.839844 346.75 C 182.496094 325.984375 182.941406 279.890625 155.835938 243.792969 C 128.734375 207.699219 84.347656 195.265625 56.691406 216.03125 Z M 56.691406 216.03125 " clip-rule="nonzero"/></clipPath><clipPath id="b1bb319951"><path d="M 62 230 L 161 230 L 161 333 L 62 333 Z M 62 230 " clip-rule="nonzero"/></clipPath><clipPath id="97c55e85ba"><path d="M 42.308594 265.917969 L 102.023438 211.117188 L 180.582031 296.71875 L 120.871094 351.519531 Z M 42.308594 265.917969 " clip-rule="nonzero"/></clipPath><clipPath id="1363f9ae31"><path d="M 72.164062 238.515625 C 55.675781 253.648438 59.882812 285.0625 81.558594 308.683594 C 103.234375 332.300781 134.171875 339.183594 150.660156 324.050781 C 167.152344 308.917969 162.945312 277.503906 141.269531 253.882812 C 119.59375 230.261719 88.65625 223.382812 72.164062 238.515625 Z M 72.164062 238.515625 " clip-rule="nonzero"/></clipPath><clipPath id="d74b4ef8da"><path d="M 264 85 L 412 85 L 412 279 L 264 279 Z M 264 85 " clip-rule="nonzero"/></clipPath><clipPath id="ffccae6431"><path d="M 297.585938 67.664062 L 433.191406 107.183594 L 378.082031 296.292969 L 242.472656 256.773438 Z M 297.585938 67.664062 " clip-rule="nonzero"/></clipPath><clipPath id="a87ba27034"><path d="M 365.386719 87.425781 C 327.941406 76.511719 285.28125 109.886719 270.101562 161.972656 C 254.921875 214.054688 272.972656 265.125 310.421875 276.039062 C 347.867188 286.953125 390.53125 253.574219 405.707031 201.492188 C 420.886719 149.40625 402.835938 98.335938 365.386719 87.425781 Z M 365.386719 87.425781 " clip-rule="nonzero"/></clipPath><clipPath id="a4c1164c12"><path d="M 288 105 L 388 105 L 388 258 L 288 258 Z M 288 105 " clip-rule="nonzero"/></clipPath><clipPath id="dc1b10b878"><path d="M 316.042969 93.804688 L 404.25 120.027344 L 359.691406 269.90625 L 271.488281 243.683594 Z M 316.042969 93.804688 " clip-rule="nonzero"/></clipPath><clipPath id="a6b7faa52b"><path d="M 360.144531 106.914062 C 335.789062 99.675781 306.085938 127.300781 293.800781 168.621094 C 281.519531 209.941406 291.304688 249.304688 315.664062 256.546875 C 340.019531 263.789062 369.722656 236.160156 382.007812 194.84375 C 394.289062 153.523438 384.503906 114.15625 360.144531 106.914062 Z M 360.144531 106.914062 " clip-rule="nonzero"/></clipPath><clipPath id="c9c0c4ddef"><path d="M 354 208 L 500 208 L 500 356 L 354 356 Z M 354 208 " clip-rule="nonzero"/></clipPath><clipPath id="60384c1967"><path d="M 438.316406 179.773438 L 528.386719 266.769531 L 414.546875 384.640625 L 324.472656 297.644531 Z M 438.316406 179.773438 " clip-rule="nonzero"/></clipPath><clipPath id="831864f8e5"><path d="M 483.351562 223.273438 C 458.476562 199.25 412.894531 206.09375 381.535156 238.5625 C 350.175781 271.03125 344.917969 316.828125 369.792969 340.851562 C 394.664062 364.875 440.25 358.027344 471.609375 325.558594 C 502.964844 293.089844 508.222656 247.296875 483.351562 223.273438 Z M 483.351562 223.273438 " clip-rule="nonzero"/></clipPath><clipPath id="6890ff86a2"><path d="M 369 228 L 472 228 L 472 335 L 369 335 Z M 369 228 " clip-rule="nonzero"/></clipPath><clipPath id="cbe7664988"><path d="M 429.824219 208.191406 L 492.515625 264.589844 L 411.664062 354.460938 L 348.976562 298.0625 Z M 429.824219 208.191406 " clip-rule="nonzero"/></clipPath><clipPath id="d85499ee5f"><path d="M 461.167969 236.390625 C 443.859375 220.816406 411.742188 228.292969 389.433594 253.089844 C 367.125 277.886719 363.074219 310.613281 380.386719 326.1875 C 397.699219 341.761719 429.816406 334.285156 452.125 309.488281 C 474.429688 284.691406 478.480469 251.964844 461.167969 236.390625 Z M 461.167969 236.390625 " clip-rule="nonzero"/></clipPath><clipPath id="502bacb74b"><path d="M 217.601562 252.410156 L 308.855469 252.410156 L 308.855469 285.417969 L 217.601562 285.417969 Z M 217.601562 252.410156 " clip-rule="nonzero"/></clipPath><clipPath id="a010a16bf7"><path d="M 249.507812 241.023438 L 276.71875 241.023438 L 276.71875 256.492188 L 249.507812 256.492188 Z M 249.507812 241.023438 " clip-rule="nonzero"/></clipPath><clipPath id="cf7950ffd2"><path d="M 247.507812 441.660156 L 278.570312 441.660156 L 278.570312 452.660156 L 247.507812 452.660156 Z M 247.507812 441.660156 " clip-rule="nonzero"/></clipPath><clipPath id="ee2215b901"><path d="M 255.515625 433.054688 L 270.835938 433.054688 L 270.835938 442.515625 L 255.515625 442.515625 Z M 255.515625 433.054688 " clip-rule="nonzero"/></clipPath><clipPath id="2220799d5f"><path d="M 255.515625 418.097656 L 270.835938 418.097656 L 270.835938 427.5625 L 255.515625 427.5625 Z M 255.515625 418.097656 " clip-rule="nonzero"/></clipPath><clipPath id="1446635bf0"><path d="M 247.507812 426.523438 L 278.570312 426.523438 L 278.570312 437.523438 L 247.507812 437.523438 Z M 247.507812 426.523438 " clip-rule="nonzero"/></clipPath><clipPath id="55ec687165"><path d="M 257.675781 323.132812 L 268.675781 323.132812 L 268.675781 327 L 257.675781 327 Z M 257.675781 323.132812 " clip-rule="nonzero"/></clipPath><clipPath id="bcab99a2a4"><path d="M 260.785156 326.773438 L 265.566406 326.773438 L 265.566406 331.089844 L 260.785156 331.089844 Z M 260.785156 326.773438 " clip-rule="nonzero"/></clipPath></defs><g clip-path="url(#1c6cbcd46f)"><path fill="#537d5d" d="M 562.914062 350.328125 L 1191.550781 350.328125 L 1191.550781 369.472656 L 562.914062 369.472656 Z M 562.914062 350.328125 " fill-opacity="1" fill-rule="nonzero"/></g><g fill="#537d5d" fill-opacity="1"><g transform="translate(562.915653, 340.33872)"><g><path d="M 47.390625 1.1875 C 39.359375 1.1875 33.367188 0.132812 29.421875 -1.96875 C 25.472656 -4.082031 22.179688 -7.898438 19.546875 -13.421875 C 17.703125 -17.640625 16.15625 -24.519531 14.90625 -34.0625 C 13.65625 -43.601562 13.03125 -56.007812 13.03125 -71.28125 C 13.03125 -81.9375 13.257812 -92.132812 13.71875 -101.875 C 14.175781 -111.613281 14.867188 -119.117188 15.796875 -124.390625 C 16.847656 -131.097656 18.59375 -135.898438 21.03125 -138.796875 C 23.46875 -141.691406 26.523438 -143.140625 30.203125 -143.140625 C 33.492188 -143.140625 36.09375 -141.691406 38 -138.796875 C 39.914062 -135.898438 41.265625 -131.984375 42.046875 -127.046875 C 42.835938 -122.109375 43.234375 -116.679688 43.234375 -110.765625 C 43.234375 -94.703125 42.671875 -78.441406 41.546875 -61.984375 C 40.429688 -45.535156 38.890625 -30.398438 36.921875 -16.578125 L 34.359375 -20.140625 C 40.273438 -24.222656 46.625 -27.710938 53.40625 -30.609375 C 60.1875 -33.503906 66.832031 -35.738281 73.34375 -37.3125 C 79.863281 -38.894531 85.554688 -39.6875 90.421875 -39.6875 C 95.296875 -39.6875 98.882812 -38.695312 101.1875 -36.71875 C 103.488281 -34.75 104.640625 -31.921875 104.640625 -28.234375 C 104.640625 -24.546875 103.023438 -20.828125 99.796875 -17.078125 C 96.578125 -13.328125 92.003906 -10.070312 86.078125 -7.3125 C 82.785156 -5.726562 78.898438 -4.3125 74.421875 -3.0625 C 69.953125 -1.8125 65.378906 -0.789062 60.703125 0 C 56.035156 0.789062 51.597656 1.1875 47.390625 1.1875 Z M 47.390625 1.1875 "/></g></g></g><g fill="#537d5d" fill-opacity="1"><g transform="translate(671.898122, 340.33872)"><g><path d="M 43.234375 -136.625 C 45.734375 -136.625 47.773438 -135.898438 49.359375 -134.453125 C 50.941406 -133.003906 52.390625 -130.570312 53.703125 -127.15625 C 55.679688 -121.882812 57.195312 -114.640625 58.25 -105.421875 C 59.300781 -96.210938 59.828125 -85.03125 59.828125 -71.875 C 59.828125 -63.707031 59.460938 -55.476562 58.734375 -47.1875 C 58.015625 -38.894531 57.0625 -31.328125 55.875 -24.484375 C 54.6875 -17.640625 53.304688 -12.242188 51.734375 -8.296875 C 50.285156 -4.609375 48.769531 -1.941406 47.1875 -0.296875 C 45.601562 1.347656 43.5625 2.171875 41.0625 2.171875 C 38.5625 2.171875 36.554688 1.148438 35.046875 -0.890625 C 33.535156 -2.929688 32.316406 -6.125 31.390625 -10.46875 C 30.472656 -15.070312 29.78125 -20.566406 29.3125 -26.953125 C 28.851562 -33.335938 28.625 -40.082031 28.625 -47.1875 C 28.625 -53.894531 29.019531 -60.9375 29.8125 -68.3125 C 30.601562 -75.6875 31.722656 -82.925781 33.171875 -90.03125 C 34.617188 -97.132812 36.265625 -103.648438 38.109375 -109.578125 L 39.296875 -109.375 C 35.210938 -104.632812 30.671875 -100.945312 25.671875 -98.3125 C 20.671875 -95.6875 15.929688 -94.375 11.453125 -94.375 C 9.210938 -94.375 7.46875 -94.960938 6.21875 -96.140625 C 4.96875 -97.328125 4.34375 -98.976562 4.34375 -101.09375 C 4.34375 -105.164062 5.492188 -109.273438 7.796875 -113.421875 C 10.097656 -117.566406 13.15625 -121.382812 16.96875 -124.875 C 20.789062 -128.363281 25.003906 -131.191406 29.609375 -133.359375 C 34.222656 -135.535156 38.765625 -136.625 43.234375 -136.625 Z M 43.234375 -136.625 "/></g></g></g><g fill="#537d5d" fill-opacity="1"><g transform="translate(744.750526, 340.33872)"><g><path d="M 25.46875 -122.40625 C 29.019531 -122.40625 31.976562 -120.332031 34.34375 -116.1875 C 36.71875 -112.039062 38.367188 -105.492188 39.296875 -96.546875 L 35.140625 -92.796875 C 37.515625 -102.003906 41.925781 -109.046875 48.375 -113.921875 C 54.820312 -118.796875 62.457031 -121.234375 71.28125 -121.234375 C 79.4375 -121.234375 86.671875 -119.125 92.984375 -114.90625 C 99.304688 -110.695312 104.273438 -104.347656 107.890625 -95.859375 C 111.515625 -87.367188 113.328125 -76.738281 113.328125 -63.96875 C 113.328125 -43.300781 109.609375 -28.0625 102.171875 -18.25 C 94.734375 -8.445312 84.632812 -3.546875 71.875 -3.546875 C 62.65625 -3.546875 55.410156 -5.519531 50.140625 -9.46875 C 44.878906 -13.425781 41.195312 -18.234375 39.09375 -23.890625 L 41.46875 -25.078125 C 42.519531 -17.179688 43.40625 -9.378906 44.125 -1.671875 C 44.851562 6.023438 45.21875 12.769531 45.21875 18.5625 C 45.21875 24.476562 44.160156 29.476562 42.046875 33.5625 C 39.941406 37.644531 36.585938 39.6875 31.984375 39.6875 C 27.503906 39.6875 24.144531 37.972656 21.90625 34.546875 C 19.675781 31.128906 18.035156 26.585938 16.984375 20.921875 C 16.191406 15.128906 15.398438 7.695312 14.609375 -1.375 C 13.816406 -10.457031 13.191406 -20.265625 12.734375 -30.796875 C 12.273438 -41.328125 12.046875 -51.59375 12.046875 -61.59375 C 12.046875 -71.863281 12.40625 -81.503906 13.125 -90.515625 C 13.851562 -99.535156 14.742188 -106.878906 15.796875 -112.546875 C 16.710938 -115.828125 17.925781 -118.289062 19.4375 -119.9375 C 20.957031 -121.582031 22.96875 -122.40625 25.46875 -122.40625 Z M 63.1875 -98.515625 C 56.070312 -98.515625 50.375 -94.992188 46.09375 -87.953125 C 41.820312 -80.910156 39.6875 -71.929688 39.6875 -61.015625 C 39.6875 -49.816406 41.820312 -41.453125 46.09375 -35.921875 C 50.375 -30.398438 55.9375 -27.640625 62.78125 -27.640625 C 70.675781 -27.640625 76.367188 -30.765625 79.859375 -37.015625 C 83.347656 -43.265625 85.09375 -51.394531 85.09375 -61.40625 C 85.09375 -74.164062 82.921875 -83.539062 78.578125 -89.53125 C 74.234375 -95.519531 69.101562 -98.515625 63.1875 -98.515625 Z M 63.1875 -98.515625 "/></g></g></g><g fill="#537d5d" fill-opacity="1"><g transform="translate(865.973776, 340.33872)"><g><path d="M 25.46875 -122.40625 C 29.019531 -122.40625 31.976562 -120.332031 34.34375 -116.1875 C 36.71875 -112.039062 38.367188 -105.492188 39.296875 -96.546875 L 35.140625 -92.796875 C 37.515625 -102.003906 41.925781 -109.046875 48.375 -113.921875 C 54.820312 -118.796875 62.457031 -121.234375 71.28125 -121.234375 C 79.4375 -121.234375 86.671875 -119.125 92.984375 -114.90625 C 99.304688 -110.695312 104.273438 -104.347656 107.890625 -95.859375 C 111.515625 -87.367188 113.328125 -76.738281 113.328125 -63.96875 C 113.328125 -43.300781 109.609375 -28.0625 102.171875 -18.25 C 94.734375 -8.445312 84.632812 -3.546875 71.875 -3.546875 C 62.65625 -3.546875 55.410156 -5.519531 50.140625 -9.46875 C 44.878906 -13.425781 41.195312 -18.234375 39.09375 -23.890625 L 41.46875 -25.078125 C 42.519531 -17.179688 43.40625 -9.378906 44.125 -1.671875 C 44.851562 6.023438 45.21875 12.769531 45.21875 18.5625 C 45.21875 24.476562 44.160156 29.476562 42.046875 33.5625 C 39.941406 37.644531 36.585938 39.6875 31.984375 39.6875 C 27.503906 39.6875 24.144531 37.972656 21.90625 34.546875 C 19.675781 31.128906 18.035156 26.585938 16.984375 20.921875 C 16.191406 15.128906 15.398438 7.695312 14.609375 -1.375 C 13.816406 -10.457031 13.191406 -20.265625 12.734375 -30.796875 C 12.273438 -41.328125 12.046875 -51.59375 12.046875 -61.59375 C 12.046875 -71.863281 12.40625 -81.503906 13.125 -90.515625 C 13.851562 -99.535156 14.742188 -106.878906 15.796875 -112.546875 C 16.710938 -115.828125 17.925781 -118.289062 19.4375 -119.9375 C 20.957031 -121.582031 22.96875 -122.40625 25.46875 -122.40625 Z M 63.1875 -98.515625 C 56.070312 -98.515625 50.375 -94.992188 46.09375 -87.953125 C 41.820312 -80.910156 39.6875 -71.929688 39.6875 -61.015625 C 39.6875 -49.816406 41.820312 -41.453125 46.09375 -35.921875 C 50.375 -30.398438 55.9375 -27.640625 62.78125 -27.640625 C 70.675781 -27.640625 76.367188 -30.765625 79.859375 -37.015625 C 83.347656 -43.265625 85.09375 -51.394531 85.09375 -61.40625 C 85.09375 -74.164062 82.921875 -83.539062 78.578125 -89.53125 C 74.234375 -95.519531 69.101562 -98.515625 63.1875 -98.515625 Z M 63.1875 -98.515625 "/></g></g></g><g fill="#537d5d" fill-opacity="1"><g transform="translate(987.197025, 340.33872)"><g><path d="M 29.421875 -151.4375 C 34.679688 -151.4375 38.460938 -149.988281 40.765625 -147.09375 C 43.066406 -144.195312 44.21875 -140.835938 44.21875 -137.015625 C 44.21875 -132.273438 42.800781 -128.625 39.96875 -126.0625 C 37.144531 -123.5 33.164062 -122.21875 28.03125 -122.21875 C 23.03125 -122.21875 19.28125 -123.628906 16.78125 -126.453125 C 14.28125 -129.285156 13.03125 -132.609375 13.03125 -136.421875 C 13.03125 -141.429688 14.539062 -145.1875 17.5625 -147.6875 C 20.59375 -150.1875 24.546875 -151.4375 29.421875 -151.4375 Z M 30.609375 -107.40625 C 34.816406 -107.40625 38.132812 -103.457031 40.5625 -95.5625 C 43 -87.664062 44.21875 -75.09375 44.21875 -57.84375 C 44.21875 -36.65625 42.703125 -21.390625 39.671875 -12.046875 C 36.648438 -2.703125 32.046875 1.96875 25.859375 1.96875 C 21.117188 1.96875 17.628906 -1.484375 15.390625 -8.390625 C 13.160156 -15.296875 12.046875 -27.375 12.046875 -44.625 C 12.046875 -65.8125 13.789062 -81.570312 17.28125 -91.90625 C 20.769531 -102.238281 25.210938 -107.40625 30.609375 -107.40625 Z M 30.609375 -107.40625 "/></g></g></g><g fill="#537d5d" fill-opacity="1"><g transform="translate(1043.465132, 340.33872)"><g><path d="M 23.6875 -106.609375 C 16.84375 -106.609375 12.003906 -108.253906 9.171875 -111.546875 C 6.347656 -114.835938 4.9375 -119.507812 4.9375 -125.5625 C 4.9375 -128.851562 5.492188 -132.109375 6.609375 -135.328125 C 7.734375 -138.554688 9.644531 -141.253906 12.34375 -143.421875 C 15.039062 -145.597656 18.757812 -146.6875 23.5 -146.6875 C 28.894531 -146.6875 33.269531 -144.78125 36.625 -140.96875 C 39.976562 -137.15625 41.65625 -131.296875 41.65625 -123.390625 C 41.65625 -118.921875 40.734375 -114.050781 38.890625 -108.78125 C 37.046875 -103.519531 34.675781 -98.648438 31.78125 -94.171875 C 29.28125 -90.484375 26.878906 -87.71875 24.578125 -85.875 C 22.273438 -84.039062 20.003906 -83.125 17.765625 -83.125 C 16.191406 -83.125 14.910156 -83.550781 13.921875 -84.40625 C 12.929688 -85.257812 12.4375 -86.539062 12.4375 -88.25 C 12.4375 -90.09375 13.0625 -92.691406 14.3125 -96.046875 C 15.5625 -99.410156 18.226562 -103.921875 22.3125 -109.578125 Z M 23.6875 -106.609375 "/></g></g></g><g fill="#537d5d" fill-opacity="1"><g transform="translate(1086.110247, 340.33872)"><g><path d="M 62 -123.59375 C 73.707031 -123.59375 82.128906 -121.878906 87.265625 -118.453125 C 92.398438 -115.035156 94.96875 -110.628906 94.96875 -105.234375 C 94.96875 -102.078125 93.878906 -99.476562 91.703125 -97.4375 C 89.535156 -95.394531 86.476562 -94.375 82.53125 -94.375 C 78.445312 -94.375 74.203125 -94.960938 69.796875 -96.140625 C 65.390625 -97.328125 60.289062 -97.921875 54.5 -97.921875 C 47.78125 -97.921875 42.773438 -96.601562 39.484375 -93.96875 C 36.191406 -91.34375 34.546875 -87.988281 34.546875 -83.90625 C 34.546875 -80.09375 36.023438 -77.097656 38.984375 -74.921875 C 41.953125 -72.753906 47.648438 -71.144531 56.078125 -70.09375 C 65.421875 -69.039062 73.148438 -67.359375 79.265625 -65.046875 C 85.390625 -62.742188 89.960938 -59.320312 92.984375 -54.78125 C 96.015625 -50.25 97.53125 -44.03125 97.53125 -36.125 C 97.53125 -23.625 93.117188 -14.34375 84.296875 -8.28125 C 75.484375 -2.226562 63.3125 0.796875 47.78125 0.796875 C 37.90625 0.796875 30.070312 0.00390625 24.28125 -1.578125 C 18.488281 -3.160156 14.304688 -5.398438 11.734375 -8.296875 C 9.171875 -11.191406 7.890625 -14.613281 7.890625 -18.5625 C 7.890625 -21.976562 9.039062 -24.640625 11.34375 -26.546875 C 13.65625 -28.460938 16.390625 -29.421875 19.546875 -29.421875 C 22.578125 -29.421875 25.800781 -29.054688 29.21875 -28.328125 C 32.644531 -27.609375 36.265625 -26.851562 40.078125 -26.0625 C 43.898438 -25.269531 47.847656 -24.875 51.921875 -24.875 C 65.085938 -24.875 71.671875 -28.957031 71.671875 -37.125 C 71.671875 -39.882812 71.007812 -42.117188 69.6875 -43.828125 C 68.375 -45.535156 66.003906 -46.945312 62.578125 -48.0625 C 59.160156 -49.1875 54.160156 -50.078125 47.578125 -50.734375 C 39.679688 -51.523438 32.835938 -52.875 27.046875 -54.78125 C 21.253906 -56.695312 16.78125 -59.859375 13.625 -64.265625 C 10.46875 -68.671875 8.890625 -74.757812 8.890625 -82.53125 C 8.890625 -94.769531 13.492188 -104.671875 22.703125 -112.234375 C 31.921875 -119.804688 45.019531 -123.59375 62 -123.59375 Z M 62 -123.59375 "/></g></g></g><g clip-path="url(#a733d25a2f)"><path fill="#d2d0a0" d="M 1191.550781 350.328125 L 1541.609375 350.328125 L 1541.609375 369.472656 L 1191.550781 369.472656 Z M 1191.550781 350.328125 " fill-opacity="1" fill-rule="nonzero"/></g><g fill="#d2d0a0" fill-opacity="1"><g transform="translate(1191.550891, 340.33872)"><g><path d="M 25.46875 -122.40625 C 29.019531 -122.40625 31.976562 -120.332031 34.34375 -116.1875 C 36.71875 -112.039062 38.367188 -105.492188 39.296875 -96.546875 L 35.140625 -92.796875 C 37.515625 -102.003906 41.925781 -109.046875 48.375 -113.921875 C 54.820312 -118.796875 62.457031 -121.234375 71.28125 -121.234375 C 79.4375 -121.234375 86.671875 -119.125 92.984375 -114.90625 C 99.304688 -110.695312 104.273438 -104.347656 107.890625 -95.859375 C 111.515625 -87.367188 113.328125 -76.738281 113.328125 -63.96875 C 113.328125 -43.300781 109.609375 -28.0625 102.171875 -18.25 C 94.734375 -8.445312 84.632812 -3.546875 71.875 -3.546875 C 62.65625 -3.546875 55.410156 -5.519531 50.140625 -9.46875 C 44.878906 -13.425781 41.195312 -18.234375 39.09375 -23.890625 L 41.46875 -25.078125 C 42.519531 -17.179688 43.40625 -9.378906 44.125 -1.671875 C 44.851562 6.023438 45.21875 12.769531 45.21875 18.5625 C 45.21875 24.476562 44.160156 29.476562 42.046875 33.5625 C 39.941406 37.644531 36.585938 39.6875 31.984375 39.6875 C 27.503906 39.6875 24.144531 37.972656 21.90625 34.546875 C 19.675781 31.128906 18.035156 26.585938 16.984375 20.921875 C 16.191406 15.128906 15.398438 7.695312 14.609375 -1.375 C 13.816406 -10.457031 13.191406 -20.265625 12.734375 -30.796875 C 12.273438 -41.328125 12.046875 -51.59375 12.046875 -61.59375 C 12.046875 -71.863281 12.40625 -81.503906 13.125 -90.515625 C 13.851562 -99.535156 14.742188 -106.878906 15.796875 -112.546875 C 16.710938 -115.828125 17.925781 -118.289062 19.4375 -119.9375 C 20.957031 -121.582031 22.96875 -122.40625 25.46875 -122.40625 Z M 63.1875 -98.515625 C 56.070312 -98.515625 50.375 -94.992188 46.09375 -87.953125 C 41.820312 -80.910156 39.6875 -71.929688 39.6875 -61.015625 C 39.6875 -49.816406 41.820312 -41.453125 46.09375 -35.921875 C 50.375 -30.398438 55.9375 -27.640625 62.78125 -27.640625 C 70.675781 -27.640625 76.367188 -30.765625 79.859375 -37.015625 C 83.347656 -43.265625 85.09375 -51.394531 85.09375 -61.40625 C 85.09375 -74.164062 82.921875 -83.539062 78.578125 -89.53125 C 74.234375 -95.519531 69.101562 -98.515625 63.1875 -98.515625 Z M 63.1875 -98.515625 "/></g></g></g><g fill="#d2d0a0" fill-opacity="1"><g transform="translate(1312.77414, 340.33872)"><g><path d="M 67.328125 1.578125 C 52.710938 1.578125 41.0625 -0.59375 32.375 -4.9375 C 23.6875 -9.28125 17.429688 -15.53125 13.609375 -23.6875 C 9.796875 -31.851562 7.890625 -41.59375 7.890625 -52.90625 C 7.890625 -67.257812 10.554688 -79.46875 15.890625 -89.53125 C 21.222656 -99.601562 28.59375 -107.335938 38 -112.734375 C 47.414062 -118.128906 58.113281 -120.828125 70.09375 -120.828125 C 84.175781 -120.828125 94.503906 -117.566406 101.078125 -111.046875 C 107.660156 -104.535156 110.953125 -96.015625 110.953125 -85.484375 C 110.953125 -77.066406 108.75 -69.796875 104.34375 -63.671875 C 99.9375 -57.554688 93.847656 -52.851562 86.078125 -49.5625 C 78.316406 -46.269531 69.367188 -44.625 59.234375 -44.625 C 53.566406 -44.625 48.101562 -45.347656 42.84375 -46.796875 C 37.582031 -48.242188 32.84375 -50.21875 28.625 -52.71875 L 33.359375 -61.40625 C 32.972656 -58.25 32.78125 -55.085938 32.78125 -51.921875 C 32.78125 -42.710938 35.675781 -36.097656 41.46875 -32.078125 C 47.257812 -28.066406 55.484375 -26.0625 66.140625 -26.0625 C 74.429688 -26.0625 81.078125 -26.785156 86.078125 -28.234375 C 91.078125 -29.679688 95.289062 -31.09375 98.71875 -32.46875 C 102.144531 -33.851562 105.5 -34.546875 108.78125 -34.546875 C 110.625 -34.546875 112.300781 -34.050781 113.8125 -33.0625 C 115.332031 -32.082031 116.585938 -30.671875 117.578125 -28.828125 C 118.566406 -26.984375 119.0625 -24.742188 119.0625 -22.109375 C 119.0625 -18.160156 117.082031 -14.375 113.125 -10.75 C 109.175781 -7.132812 103.351562 -4.175781 95.65625 -1.875 C 87.957031 0.425781 78.515625 1.578125 67.328125 1.578125 Z M 55.875 -62.984375 C 65.21875 -62.984375 72.71875 -64.957031 78.375 -68.90625 C 84.039062 -72.851562 86.875 -77.722656 86.875 -83.515625 C 86.875 -88.117188 85.328125 -91.898438 82.234375 -94.859375 C 79.140625 -97.828125 74.300781 -99.3125 67.71875 -99.3125 C 61.53125 -99.3125 55.96875 -98.160156 51.03125 -95.859375 C 46.101562 -93.554688 42.253906 -90.5625 39.484375 -86.875 C 36.722656 -83.1875 35.34375 -79.171875 35.34375 -74.828125 C 35.34375 -71.015625 37.148438 -68.085938 40.765625 -66.046875 C 44.390625 -64.003906 49.425781 -62.984375 55.875 -62.984375 Z M 55.875 -62.984375 "/></g></g></g><g fill="#d2d0a0" fill-opacity="1"><g transform="translate(1437.156289, 340.33872)"><g><path d="M 45.40625 -118.859375 L 41.46875 -118.859375 C 41.070312 -124.648438 41.203125 -130.144531 41.859375 -135.34375 C 42.515625 -140.539062 43.925781 -144.75 46.09375 -147.96875 C 48.269531 -151.195312 51.398438 -152.8125 55.484375 -152.8125 C 59.171875 -152.8125 61.867188 -151.625 63.578125 -149.25 C 65.285156 -146.882812 66.140625 -143.597656 66.140625 -139.390625 C 66.140625 -131.097656 64.5625 -123.988281 61.40625 -118.0625 L 57.84375 -118.46875 C 64.957031 -120.96875 72.988281 -122.21875 81.9375 -122.21875 C 87.59375 -122.21875 92.097656 -121.128906 95.453125 -118.953125 C 98.816406 -116.785156 100.5 -113.132812 100.5 -108 C 100.5 -103.125 98.523438 -99.4375 94.578125 -96.9375 C 90.628906 -94.4375 85.691406 -93.1875 79.765625 -93.1875 C 76.210938 -93.1875 72.425781 -93.347656 68.40625 -93.671875 C 64.394531 -94.003906 60.484375 -94.566406 56.671875 -95.359375 L 60.015625 -99.515625 C 61.203125 -94.503906 62.351562 -88.804688 63.46875 -82.421875 C 64.59375 -76.046875 65.613281 -69.4375 66.53125 -62.59375 C 67.457031 -55.75 68.179688 -49.097656 68.703125 -42.640625 C 69.234375 -36.191406 69.5 -30.398438 69.5 -25.265625 C 69.5 -16.847656 68.179688 -10.203125 65.546875 -5.328125 C 62.910156 -0.460938 59.03125 1.96875 53.90625 1.96875 C 49.820312 1.96875 46.628906 0.71875 44.328125 -1.78125 C 42.023438 -4.28125 40.378906 -7.46875 39.390625 -11.34375 C 38.398438 -15.226562 37.804688 -19.273438 37.609375 -23.484375 C 37.410156 -27.703125 37.3125 -31.523438 37.3125 -34.953125 C 37.3125 -40.742188 37.570312 -47.289062 38.09375 -54.59375 C 38.625 -61.894531 39.382812 -69.425781 40.375 -77.1875 C 41.363281 -84.957031 42.515625 -92.460938 43.828125 -99.703125 L 47.78125 -96.34375 C 41.0625 -92.925781 32.769531 -91.21875 22.90625 -91.21875 C 16.851562 -91.21875 12.179688 -92.332031 8.890625 -94.5625 C 5.597656 -96.800781 3.953125 -100.289062 3.953125 -105.03125 C 3.953125 -110.164062 5.789062 -114.148438 9.46875 -116.984375 C 13.15625 -119.816406 18.09375 -121.234375 24.28125 -121.234375 C 28.363281 -121.234375 32.210938 -121 35.828125 -120.53125 C 39.453125 -120.070312 42.644531 -119.515625 45.40625 -118.859375 Z M 45.40625 -118.859375 "/></g></g></g><g clip-path="url(#14908e65f3)"><g clip-path="url(#cf363224e3)"><path fill="#537d5d" d="M 0.359375 0 L 537.859375 0 L 537.859375 537.5 L 0.359375 537.5 Z M 0.359375 0 " fill-opacity="1" fill-rule="nonzero"/></g></g><g clip-path="url(#9fc8816988)"><g clip-path="url(#849e24878f)"><path fill="#d2d0a0" d="M 23.5625 25.351562 L 510.355469 25.351562 L 510.355469 512.148438 L 23.5625 512.148438 Z M 23.5625 25.351562 " fill-opacity="1" fill-rule="nonzero"/></g></g><g clip-path="url(#4ab6e210bc)"><path fill="#537d5d" d="M 168.308594 256.9375 L 373.210938 256.9375 L 373.210938 351.453125 L 168.308594 351.453125 Z M 168.308594 256.9375 " fill-opacity="1" fill-rule="nonzero"/></g><g clip-path="url(#72f9464104)"><g clip-path="url(#40a5f54935)"><path fill="#537d5d" d="M 236.195312 167.101562 L 290.035156 167.101562 L 290.035156 349.230469 L 236.195312 349.230469 Z M 236.195312 167.101562 " fill-opacity="1" fill-rule="nonzero"/></g></g><g clip-path="url(#b39d17d7d6)"><g clip-path="url(#e119807795)"><path fill="#537d5d" d="M 409.078125 469.828125 L 120.84375 469.828125 L 120.84375 220.546875 L 409.078125 220.546875 Z M 409.078125 469.828125 " fill-opacity="1" fill-rule="nonzero"/></g></g><g clip-path="url(#5b2eb73d00)"><g clip-path="url(#41db180fde)"><path fill="#d2d0a0" d="M 384.816406 449.179688 L 144.9375 449.179688 L 144.9375 241.714844 L 384.816406 241.714844 Z M 384.816406 449.179688 " fill-opacity="1" fill-rule="nonzero"/></g></g><g clip-path="url(#4cf1577273)"><g clip-path="url(#5aea7103e3)"><path fill="#537d5d" d="M 218.628906 318.234375 L 307.464844 318.234375 L 307.464844 395.0625 L 218.628906 395.0625 Z M 218.628906 318.234375 " fill-opacity="1" fill-rule="nonzero"/></g></g><g clip-path="url(#d2ebf9a934)"><g clip-path="url(#5691add49e)"><g clip-path="url(#d6ce0b4f2b)"><path fill="#537d5d" d="M 101.289062 97.238281 L 239.730469 69.222656 L 278.691406 261.742188 L 140.25 289.757812 Z M 101.289062 97.238281 " fill-opacity="1" fill-rule="nonzero"/></g></g></g><g clip-path="url(#b7a1cc7132)"><g clip-path="url(#f78970a1d0)"><g clip-path="url(#1e6831b55e)"><path fill="#d2d0a0" d="M 129.78125 115.410156 L 220.070312 97.644531 L 250.1875 250.710938 L 159.898438 268.480469 Z M 129.78125 115.410156 " fill-opacity="1" fill-rule="nonzero"/></g></g></g><g clip-path="url(#e403055824)"><g clip-path="url(#b25dc87c40)"><g clip-path="url(#33cc541d8c)"><path fill="#537d5d" d="M 6.625 253.625 L 106.761719 178.4375 L 204.863281 309.085938 L 104.722656 384.277344 Z M 6.625 253.625 " fill-opacity="1" fill-rule="nonzero"/></g></g></g><g clip-path="url(#b1bb319951)"><g clip-path="url(#97c55e85ba)"><g clip-path="url(#1363f9ae31)"><path fill="#d2d0a0" d="M 42.308594 265.917969 L 102.023438 211.117188 L 180.582031 296.71875 L 120.871094 351.519531 Z M 42.308594 265.917969 " fill-opacity="1" fill-rule="nonzero"/></g></g></g><g clip-path="url(#d74b4ef8da)"><g clip-path="url(#ffccae6431)"><g clip-path="url(#a87ba27034)"><path fill="#537d5d" d="M 297.585938 67.664062 L 433.191406 107.183594 L 378.234375 295.765625 L 242.625 256.242188 Z M 297.585938 67.664062 " fill-opacity="1" fill-rule="nonzero"/></g></g></g><g clip-path="url(#a4c1164c12)"><g clip-path="url(#dc1b10b878)"><g clip-path="url(#a6b7faa52b)"><path fill="#d2d0a0" d="M 316.042969 93.804688 L 404.25 120.027344 L 359.792969 269.5625 L 271.589844 243.339844 Z M 316.042969 93.804688 " fill-opacity="1" fill-rule="nonzero"/></g></g></g><g clip-path="url(#c9c0c4ddef)"><g clip-path="url(#60384c1967)"><g clip-path="url(#831864f8e5)"><path fill="#537d5d" d="M 438.316406 179.773438 L 528.386719 266.769531 L 414.886719 384.289062 L 324.8125 297.292969 Z M 438.316406 179.773438 " fill-opacity="1" fill-rule="nonzero"/></g></g></g><g clip-path="url(#6890ff86a2)"><g clip-path="url(#cbe7664988)"><g clip-path="url(#d85499ee5f)"><path fill="#d2d0a0" d="M 429.824219 208.191406 L 492.515625 264.589844 L 411.664062 354.460938 L 348.976562 298.0625 Z M 429.824219 208.191406 " fill-opacity="1" fill-rule="nonzero"/></g></g></g><g clip-path="url(#502bacb74b)"><path fill="#537d5d" d="M 217.640625 285.242188 L 217.671875 285.207031 C 220.230469 281.128906 223.1875 277.289062 226.539062 273.6875 C 229.796875 270.300781 233.46875 267.398438 237.554688 264.988281 C 246.023438 260.167969 254.902344 257.914062 264.1875 258.230469 C 269.375 258.3125 274.0625 259.023438 278.25 260.363281 C 280.875 261.070312 284.335938 262.582031 288.628906 264.898438 C 292.695312 267.238281 296.441406 270.183594 299.867188 273.734375 C 303.300781 277.453125 306.207031 281.1875 308.585938 284.929688 C 305.816406 275.507812 299.96875 267.683594 291.046875 261.445312 C 286.246094 258.238281 281.597656 256.003906 277.105469 254.746094 C 275.546875 254.28125 273.832031 253.859375 271.964844 253.476562 C 270.117188 253.0625 267.507812 252.769531 264.140625 252.59375 C 253.839844 252.464844 244.175781 255.425781 235.144531 261.46875 C 231.105469 264.1875 227.402344 267.71875 224.035156 272.0625 C 222.691406 273.789062 221.355469 275.910156 220.027344 278.425781 C 218.621094 281.113281 217.828125 283.382812 217.640625 285.242188 " fill-opacity="1" fill-rule="nonzero"/></g><g clip-path="url(#a010a16bf7)"><path fill="#537d5d" d="M 249.507812 241.023438 L 276.703125 241.023438 L 276.703125 256.492188 L 249.507812 256.492188 Z M 249.507812 241.023438 " fill-opacity="1" fill-rule="nonzero"/></g><g clip-path="url(#cf7950ffd2)"><path fill="#537d5d" d="M 247.523438 452.914062 L 247.535156 452.902344 C 248.410156 451.503906 249.425781 450.1875 250.574219 448.953125 C 251.691406 447.789062 252.949219 446.796875 254.351562 445.96875 C 257.253906 444.316406 260.296875 443.546875 263.480469 443.652344 C 265.257812 443.683594 266.863281 443.925781 268.300781 444.386719 C 269.199219 444.628906 270.386719 445.144531 271.855469 445.941406 C 273.25 446.742188 274.535156 447.75 275.710938 448.96875 C 276.886719 450.242188 277.882812 451.523438 278.699219 452.804688 C 277.75 449.578125 275.746094 446.894531 272.6875 444.757812 C 271.039062 443.65625 269.445312 442.890625 267.90625 442.460938 C 267.371094 442.300781 266.785156 442.15625 266.144531 442.023438 C 265.511719 441.882812 264.617188 441.78125 263.460938 441.722656 C 259.933594 441.679688 256.617188 442.691406 253.523438 444.765625 C 252.140625 445.695312 250.871094 446.90625 249.714844 448.394531 C 249.253906 448.988281 248.796875 449.714844 248.339844 450.574219 C 247.859375 451.496094 247.589844 452.277344 247.523438 452.914062 " fill-opacity="1" fill-rule="nonzero"/></g><g clip-path="url(#ee2215b901)"><path fill="#537d5d" d="M 255.515625 433.054688 L 270.820312 433.054688 L 270.820312 442.519531 L 255.515625 442.519531 Z M 255.515625 433.054688 " fill-opacity="1" fill-rule="nonzero"/></g><g clip-path="url(#2220799d5f)"><path fill="#d2d0a0" d="M 255.515625 418.097656 L 270.820312 418.097656 L 270.820312 427.5625 L 255.515625 427.5625 Z M 255.515625 418.097656 " fill-opacity="1" fill-rule="nonzero"/></g><g clip-path="url(#1446635bf0)"><path fill="#d2d0a0" d="M 247.523438 437.777344 L 247.535156 437.765625 C 248.410156 436.367188 249.425781 435.050781 250.574219 433.816406 C 251.691406 432.652344 252.949219 431.660156 254.351562 430.832031 C 257.253906 429.179688 260.296875 428.410156 263.480469 428.515625 C 265.257812 428.546875 266.863281 428.789062 268.300781 429.25 C 269.199219 429.492188 270.386719 430.007812 271.855469 430.804688 C 273.25 431.605469 274.535156 432.613281 275.710938 433.832031 C 276.886719 435.105469 277.882812 436.386719 278.699219 437.667969 C 277.75 434.441406 275.746094 431.757812 272.6875 429.621094 C 271.039062 428.519531 269.445312 427.753906 267.90625 427.324219 C 267.371094 427.164062 266.785156 427.019531 266.144531 426.886719 C 265.511719 426.746094 264.617188 426.644531 263.460938 426.585938 C 259.933594 426.542969 256.617188 427.554688 253.523438 429.628906 C 252.140625 430.558594 250.871094 431.769531 249.714844 433.257812 C 249.253906 433.851562 248.796875 434.578125 248.339844 435.4375 C 247.859375 436.359375 247.589844 437.140625 247.523438 437.777344 " fill-opacity="1" fill-rule="nonzero"/></g><g clip-path="url(#55ec687165)"><path fill="#537d5d" d="M 268.675781 323.042969 L 268.671875 323.046875 C 268.359375 323.542969 268.003906 324.007812 267.597656 324.441406 C 267.203125 324.851562 266.757812 325.203125 266.265625 325.496094 C 265.238281 326.078125 264.164062 326.351562 263.039062 326.3125 C 262.414062 326.304688 261.84375 326.21875 261.339844 326.054688 C 261.019531 325.96875 260.601562 325.785156 260.082031 325.507812 C 259.589844 325.222656 259.136719 324.867188 258.722656 324.4375 C 258.304688 323.988281 257.953125 323.535156 257.667969 323.082031 C 258.003906 324.222656 258.710938 325.167969 259.789062 325.925781 C 260.371094 326.3125 260.933594 326.582031 261.476562 326.734375 C 261.667969 326.789062 261.875 326.84375 262.097656 326.886719 C 262.324219 326.9375 262.640625 326.972656 263.046875 326.996094 C 264.292969 327.011719 265.464844 326.652344 266.554688 325.921875 C 267.046875 325.59375 267.492188 325.164062 267.902344 324.640625 C 268.0625 324.429688 268.226562 324.171875 268.386719 323.867188 C 268.554688 323.542969 268.652344 323.269531 268.675781 323.042969 " fill-opacity="1" fill-rule="nonzero"/></g><g clip-path="url(#bcab99a2a4)"><path fill="#537d5d" d="M 260.785156 326.773438 L 265.574219 326.773438 L 265.574219 331.089844 L 260.785156 331.089844 Z M 260.785156 326.773438 " fill-opacity="1" fill-rule="nonzero"/></g><path stroke-linecap="butt" transform="matrix(-0.64641, 0.0314695, -0.0314695, -0.64641, 322.767573, 405.962795)" fill="none" stroke-linejoin="miter" d="M 3.252275 32.932359 C 39.452279 -4.977549 69.818428 -4.979752 94.356457 32.932072 " stroke="#537d5d" stroke-width="9" stroke-opacity="1" stroke-miterlimit="4"/><path stroke-linecap="butt" transform="matrix(-0.646786, -0.0224336, 0.0224336, -0.646786, 268.564435, 408.946144)" fill="none" stroke-linejoin="miter" d="M 3.61112 32.80929 C 31.635623 -4.937094 61.863277 -4.934665 94.305938 32.810127 " stroke="#537d5d" stroke-width="9" stroke-opacity="1" stroke-miterlimit="4"/></svg>